<?xml version="1.0" encoding="UTF-8"?>
<svg width="16px" height="16px" viewBox="0 0 16 16" version="1.1" xmlns="http://www.w3.org/2000/svg" xmlns:xlink="http://www.w3.org/1999/xlink">
    <!-- Generator: Sketch 49.3 (51167) - http://www.bohemiancoding.com/sketch -->
    <title>按子类 copy</title>
    <desc>Created with Sketch.</desc>
    <defs></defs>
    <g id="Page-1" stroke="none" stroke-width="1" fill="none" fill-rule="evenodd">
        <g id="异常分析" transform="translate(-1224.000000, -118.000000)" fill="#678BA4">
            <g id="主体" transform="translate(210.000000, 70.000000)">
                <g id="原因" transform="translate(1016.000000, 50.000000)">
                    <g id="Shape">
                        <path d="M12,8.50988296 L12,1.73331882 C12,0.776040145 11.2325021,0 10.2857071,0 L1.71429289,0 C0.767497907,0 0,0.776040145 0,1.73331882 L0,10.4000145 C0,11.3572932 0.767497907,12.1333333 1.71429289,12.1333333 L6.48,12.1333333 L6.48,11.2666993 L1.71429289,11.2666993 C1.24071966,11.2666993 0.856920502,10.8786285 0.856920502,10.4000145 L0.856920502,1.73331882 C0.856920502,1.25475566 1.24071966,0.866684803 1.71429289,0.866684803 L10.2857071,0.866684803 C10.7592803,0.866684803 11.1430795,1.25475566 11.1430795,1.73331882 L11.1430795,8.50993374 L12,8.50993374 L12,8.50988296 Z M12,1.73331882 C12,0.776040145 11.2325021,0 10.2857071,0 L1.71429289,0 C0.767497907,0 0,0.776040145 0,1.73331882 L0,10.4000145 C0,11.3572932 0.767497907,12.1333333 1.71429289,12.1333333 L6.48,12.1333333 L6.48,11.2666993 L1.71429289,11.2666993 C1.24071966,11.2666993 0.856920502,10.8786285 0.856920502,10.4000145 L0.856920502,1.73331882 C0.856920502,1.25475566 1.24071966,0.866684803 1.71429289,0.866684803 L10.2857071,0.866684803 C10.7592803,0.866684803 11.1430795,1.25475566 11.1430795,1.73331882 L11.1430795,8.50993374 L12,8.50993374 L12,1.73331882 Z" fill-rule="nonzero"></path>
                        <path d="M2.14090425,3.46293172 C1.90528934,3.46293172 1.71428571,3.26975787 1.71428571,3.03146586 C1.71428571,2.79317384 1.90528934,2.6 2.14090425,2.6 L8.11511353,2.6 C8.35072844,2.6 8.54173207,2.79317384 8.54173207,3.03146586 C8.54173207,3.26975787 8.35072844,3.46293172 8.11511353,3.46293172 L2.14090425,3.46293172 Z M2.14090425,6.05167631 C1.90528934,6.05167631 1.71428571,5.85850246 1.71428571,5.62021045 C1.71428571,5.38191843 1.90528934,5.18874459 2.14090425,5.18874459 L5.55470242,5.18874459 C5.79031733,5.18874459 5.98132095,5.38191843 5.98132095,5.62021045 C5.98132095,5.85850246 5.79031733,6.05167631 5.55470242,6.05167631 L2.14095424,6.05167631 L2.14090425,6.05167631 Z M2.14090425,8.64042089 C1.90528934,8.64042089 1.71428571,8.44724705 1.71428571,8.20895504 C1.71428571,7.97066302 1.90528934,7.77748918 2.14090425,7.77748918 L3.84772834,7.77748918 C4.08334325,7.77748918 4.27434688,7.97066302 4.27434688,8.20895504 C4.27434688,8.44724705 4.08334325,8.64042089 3.84772834,8.64042089 L2.14095424,8.64042089 L2.14090425,8.64042089 Z M8.11511353,11.6606061 C6.70115068,11.6606061 5.5548524,10.5016372 5.5548524,9.07186147 C5.5548524,7.6420857 6.70115068,6.48311688 8.11511353,6.48311688 C9.52907639,6.48311688 10.6753247,7.6420857 10.6753247,9.07186147 C10.6753247,10.5016372 9.52907639,11.6606061 8.11511353,11.6606061 Z M8.11511353,10.7976743 C9.05788875,10.7976743 9.8221376,10.0249948 9.8221376,9.07186147 C9.8221376,8.11877875 9.05788875,7.3460486 8.11511353,7.3460486 C7.17228832,7.3460486 6.40803947,8.11872819 6.40803947,9.07186147 C6.40803947,10.0249442 7.17228832,10.7976743 8.11511353,10.7976743 Z" fill-rule="nonzero"></path>
                        <path d="M9.55412621,11.1398091 C9.44586073,11.0303497 9.40356388,10.8707947 9.4431685,10.7212468 C9.48277311,10.5716989 9.5982623,10.4548781 9.7461324,10.4147896 C9.89400251,10.3747011 10.0517885,10.4174353 10.160054,10.5268947 L11.8744476,12.2602187 C12.0418116,12.4294142 12.0418565,12.7037799 11.874548,12.8730315 C11.7072396,13.0422832 11.435934,13.0423286 11.26857,12.8731331 L9.55412621,11.1398091 Z" fill-rule="nonzero"></path>
                    </g>
                </g>
            </g>
        </g>
    </g>
</svg>