<?xml version="1.0" encoding="UTF-8"?>
<svg width="16px" height="16px" viewBox="0 0 16 16" version="1.1" xmlns="http://www.w3.org/2000/svg" xmlns:xlink="http://www.w3.org/1999/xlink">
    <!-- Generator: Sketch 49.3 (51167) - http://www.bohemiancoding.com/sketch -->
    <title>按子类 copy 4</title>
    <desc>Created with Sketch.</desc>
    <defs></defs>
    <g id="Page-1" stroke="none" stroke-width="1" fill="none" fill-rule="evenodd">
        <g id="异常分析" transform="translate(-1386.000000, -118.000000)" fill="#678BA4">
            <g id="主体" transform="translate(210.000000, 70.000000)">
                <g id="Group" transform="translate(1172.000000, 50.000000)">
                    <g id="明细" transform="translate(6.000000, 0.000000)">
                        <g id="Shape">
                            <path d="M10.5927435,0.00150967742 L1.42162778,0.00150967742 C0.629897964,0.00150967742 0.0118189222,0.593494931 0.0118189222,1.35111336 L0.0118189222,11.2737677 C0.0118189222,11.4025935 0.0618538922,11.5222175 0.156037365,11.6203705 L1.28918228,12.8319465 C1.38042251,12.9270323 1.50109509,12.9822433 1.62176766,12.9822433 C1.72772407,12.9822433 1.83073725,12.9454359 1.91609102,12.8718212 L3.0992709,11.8964258 L4.28539401,12.8718212 C4.37663425,12.9454359 4.47670419,12.9853106 4.57971737,12.9853106 C4.68273054,12.9853106 4.78574371,12.9454359 4.87698395,12.8718212 L6.0307315,11.8994931 L7.18742228,12.8748885 C7.27866251,12.9485032 7.37873246,12.9883779 7.48174563,12.9883779 C7.5847588,12.9883779 7.68777198,12.9485032 7.77901222,12.8748885 L8.93275976,11.9025604 L10.0865073,12.8748885 L10.095337,12.881023 C10.1806908,12.9393014 10.2631013,12.9883779 10.3837739,12.9883779 C10.4897303,12.9883779 10.6398352,12.923965 10.6986999,12.8319465 L11.846561,11.6357069 C11.9584038,11.549823 11.9996091,11.396459 11.9996091,11.2799023 L11.9996091,1.35111336 C12.0025523,0.596562212 11.3844733,0.00150967742 10.5927435,0.00150967742 Z M11.1195823,11.1050673 L10.3749442,11.8565512 L9.22708311,10.9179631 C9.13584287,10.8443484 9.03577293,10.8044737 8.93275976,10.8044737 C8.82974659,10.8044737 8.72673341,10.8443484 8.63549317,10.9179631 L7.48174563,11.8902912 L6.32799808,10.9148959 C6.23675784,10.8412811 6.1366879,10.8014065 6.03367473,10.8014065 C5.93066156,10.8014065 5.82764838,10.8412811 5.73640814,10.9148959 L4.5826606,11.8902912 L3.40242395,10.9179631 C3.32884311,10.8443484 3.21700024,10.8014065 3.10221413,10.8014065 C3.03746299,10.8014065 2.91679042,10.8014065 2.83143665,10.8872903 L1.68357557,11.8258783 L0.962483353,11.0743945 L0.962483353,1.35111336 C0.962483353,1.14253825 1.1773394,0.973837788 1.43928719,0.973837788 L10.6427784,0.973837788 C10.9047262,0.973837788 11.1195823,1.14253825 11.1195823,1.35111336 L11.1195823,11.1050673 Z" fill-rule="nonzero"></path>
                            <path d="M2.0720824,2.60869862 L5.96598036,2.60869862 L5.96598036,3.57795945 L2.0720824,3.57795945 L2.0720824,2.60869862 Z M1.98378539,6.87221935 L10.0541317,6.87221935 L10.0541317,7.84148018 L1.98378539,7.84148018 L1.98378539,6.87221935 Z M2.0720824,4.72512258 L10.0276426,4.72512258 L10.0276426,5.69438341 L2.0720824,5.69438341 L2.0720824,4.72512258 Z" fill-rule="nonzero"></path>
                        </g>
                    </g>
                </g>
            </g>
        </g>
    </g>
</svg>
