<?xml version="1.0" encoding="UTF-8"?>
<svg width="16px" height="16px" viewBox="0 0 16 16" version="1.1" xmlns="http://www.w3.org/2000/svg" xmlns:xlink="http://www.w3.org/1999/xlink">
    <!-- Generator: Sketch 49.3 (51167) - http://www.bohemiancoding.com/sketch -->
    <title>前一天icon</title>
    <desc>Created with Sketch.</desc>
    <defs></defs>
    <g id="Page-1" stroke="none" stroke-width="1" fill="none" fill-rule="evenodd">
        <g id="异常处理报表" transform="translate(-1236.000000, -118.000000)" fill="#678BA4">
            <g id="主体" transform="translate(210.000000, 70.000000)">
                <g id="前一天" transform="translate(1016.000000, 50.000000)">
                    <g transform="translate(14.000000, 0.000000)" id="Shape">
                        <g>
                            <path d="M7.99764033,5.96979341 C7.99764033,7.61113021 7.99389806,9.25222292 7.99997925,10.8930715 C8.00208428,11.3492968 7.8442073,11.6978733 7.44284893,11.8958395 C7.05295125,12.0867266 6.70515411,12.0078819 6.37115659,11.7195984 C5.69731424,11.1413225 5.00733336,10.5845275 4.32436923,10.0174803 C3.08684759,8.99152278 1.84722092,7.96947085 0.61367544,6.93814307 C-0.189742976,6.26540002 -0.206115404,5.74107054 0.575317181,5.0883438 C2.54273635,3.4473954 4.51507782,1.8128854 6.49231255,0.184837891 C6.60931042,0.0923257252 6.74695307,0.0324292326 6.89226757,0.0107936998 C7.51675874,-0.0765945476 7.99483363,0.375480967 7.99623698,1.0467594 C7.99997925,2.68809621 7.99764033,4.32894481 7.99764033,5.96979341 Z" fill-rule="nonzero"></path>
                        </g>
                    </g>
                </g>
            </g>
        </g>
    </g>
</svg>