<?xml version="1.0" encoding="UTF-8"?>
<svg width="16px" height="16px" viewBox="0 0 16 16" version="1.1" xmlns="http://www.w3.org/2000/svg" xmlns:xlink="http://www.w3.org/1999/xlink">
    <!-- Generator: Sketch 49.3 (51167) - http://www.bohemiancoding.com/sketch -->
    <title>今天</title>
    <desc>Created with Sketch.</desc>
    <defs></defs>
    <g id="Page-1" stroke="none" stroke-width="1" fill="none" fill-rule="evenodd">
        <g id="异常处理报表" transform="translate(-1286.000000, -118.000000)" fill="#678BA4" fill-rule="nonzero">
            <g id="主体" transform="translate(210.000000, 70.000000)">
                <g id="234日历" transform="translate(1077.000000, 49.000000)">
                    <path d="M13.4166667,1.16666667 L10.5,1.16666667 L10.5,0 L9.33333333,0 L9.33333333,1.16666667 L4.66666667,1.16666667 L4.66666667,0 L3.5,0 L3.5,1.16666667 L0.583333333,1.16666667 C0.2625,1.16666667 0,1.42916667 0,1.75 L0,13.4166667 C0,13.7375 0.2625,14 0.583333333,14 L13.4166667,14 C13.7375,14 14,13.7375 14,13.4166667 L14,1.75 C14,1.42916667 13.7375,1.16666667 13.4166667,1.16666667 Z M12.8333333,12.8333333 L1.16666667,12.8333333 L1.16666667,4.66666667 L12.8333333,4.66666667 L12.8333333,12.8333333 Z M4.66666667,7 L2.33333333,7 L2.33333333,5.83333333 L4.66666667,5.83333333 L4.66666667,7 Z M8.16666667,7 L5.83333333,7 L5.83333333,5.83333333 L8.16666667,5.83333333 L8.16666667,7 Z M11.6666667,7 L9.33333333,7 L9.33333333,5.83333333 L11.6666667,5.83333333 L11.6666667,7 Z M4.66666667,9.33333333 L2.33333333,9.33333333 L2.33333333,8.16666667 L4.66666667,8.16666667 L4.66666667,9.33333333 Z M8.16666667,9.33333333 L5.83333333,9.33333333 L5.83333333,8.16666667 L8.16666667,8.16666667 L8.16666667,9.33333333 Z M11.6666667,9.33333333 L9.33333333,9.33333333 L9.33333333,8.16666667 L11.6666667,8.16666667 L11.6666667,9.33333333 Z M4.66666667,11.6666667 L2.33333333,11.6666667 L2.33333333,10.5 L4.66666667,10.5 L4.66666667,11.6666667 Z M8.16666667,11.6666667 L5.83333333,11.6666667 L5.83333333,10.5 L8.16666667,10.5 L8.16666667,11.6666667 Z" id="Shape"></path>
                </g>
            </g>
        </g>
    </g>
</svg>