<?xml version="1.0" encoding="UTF-8"?>
<svg width="16px" height="16px" viewBox="0 0 16 16" version="1.1" xmlns="http://www.w3.org/2000/svg" xmlns:xlink="http://www.w3.org/1999/xlink">
    <!-- Generator: Sketch 49.3 (51167) - http://www.bohemiancoding.com/sketch -->
    <title>按子类 copy 2</title>
    <desc>Created with Sketch.</desc>
    <defs></defs>
    <g id="Page-1" stroke="none" stroke-width="1" fill="none" fill-rule="evenodd">
        <g id="异常分析" transform="translate(-1280.000000, -118.000000)" fill="#678BA4">
            <g id="主体" transform="translate(210.000000, 70.000000)">
                <g id="后一天" transform="translate(1060.000000, 49.000000)">
                    <g id="前一天-copy" transform="translate(17.250000, 7.500000) rotate(180.000000) translate(-17.250000, -7.500000) translate(11.250000, 0.000000)">
                        <g id="位置icon" transform="translate(5.588235, 7.169811) scale(1, -1) translate(-5.588235, -7.169811) ">
                            <g id="位置" transform="translate(0.003442, 0.000000)">
                                <path d="M10.9727528,5.4405977 C10.9727528,2.44057449 8.51505,0 5.49421776,0 C2.47360581,0 0.0161233154,2.44057449 0.0177753667,5.40384798 C0.0143611264,5.44256643 -0.0120717084,5.7966105 0.105554403,6.39729327 C0.154109401,6.66857586 0.223552544,6.93575894 0.313272414,7.1964901 C0.800517635,8.71547811 2.07821468,11.1115373 5.39883929,13.9012341 C5.47477274,13.9651447 5.57112003,14.0001524 5.67065692,13.9999989 C5.77352469,13.9999989 5.87628233,13.9628117 5.95690247,13.8884373 C9.39019703,10.7268685 10.5134823,8.16663868 10.8519327,6.57491687 L10.8699951,6.48183948 C10.9796914,5.92523449 10.9744048,5.57206541 10.9727528,5.4405977 Z M10.0372508,6.352778 L10.0274486,6.40341822 C9.77820899,7.57612771 8.87861158,9.97010883 5.65788106,13.0198973 C2.70169912,10.4650268 1.55539528,8.31352815 1.11286561,6.93388279 C1.03518683,6.70909011 0.975238333,6.47863602 0.933562882,6.24460698 C0.837743865,5.75461085 0.856687393,5.47690991 0.858229307,5.4405977 C0.858229307,2.90180522 2.93794256,0.836274646 5.49421776,0.836274646 C8.05093351,0.836274646 10.1306468,2.90180522 10.1310873,5.46794123 C10.1322988,5.56222174 10.1363739,5.84965697 10.0372508,6.352778 Z" id="Shape" fill-rule="nonzero"></path>
                                <path d="M5.49344681,3.16167817 C4.0830349,3.16167817 2.93551956,4.30135668 2.93551956,5.70189251 C2.93551956,7.10253771 4.0830349,8.24210684 5.49344681,8.24210684 C6.90374858,8.24210684 8.05137406,7.10253771 8.05137406,5.70189251 C8.05137406,4.30135668 6.90374858,3.16167817 5.49344681,3.16167817 Z M5.49344681,7.40583219 C4.54726153,7.40583219 3.77762555,6.64152572 3.77762555,5.70189251 C3.77762555,4.76236867 4.54726153,3.99795282 5.49344681,3.99795283 C6.43952195,3.99795283 7.20926807,4.76236868 7.20926806,5.70189251 C7.20926806,6.64152572 6.43952194,7.40583219 5.49344681,7.40583219 Z" id="Shape" fill-rule="nonzero"></path>
                            </g>
                        </g>
                    </g>
                </g>
            </g>
        </g>
    </g>
</svg>