<?xml version="1.0" encoding="UTF-8"?>
<svg width="16px" height="16px" viewBox="0 0 16 16" version="1.1" xmlns="http://www.w3.org/2000/svg" xmlns:xlink="http://www.w3.org/1999/xlink">
    <!-- Generator: Sketch 49.3 (51167) - http://www.bohemiancoding.com/sketch -->
    <title>有效时间</title>
    <desc>Created with Sketch.</desc>
    <defs></defs>
    <g id="Page-1" stroke="none" stroke-width="1" fill="none" fill-rule="evenodd">
        <g id="有效时间" transform="translate(-1173.000000, -216.000000)">
            <g id="侧边栏" transform="translate(3.000000, 80.000000)"></g>
            <g id="打印机" transform="translate(1174.000000, 218.000000)" fill="#678BA4">
                <g id="Shape">
                    <path d="M13.0485437,3.49793814 L11.8252427,3.49793814 L11.8252427,0.683505155 C11.8252427,0.36185567 11.5533981,0.093814433 11.2135922,0.093814433 L2.86796117,0.093814433 C2.52815534,0.093814433 2.25631068,0.36185567 2.25631068,0.683505155 L2.25631068,3.49793814 L1.03300971,3.49793814 C0.502912621,3.49793814 0.0815533981,3.9 0.0815533981,4.38247423 L0.0815533981,10.3195876 C0.0815533981,10.8020619 0.516504854,11.2041237 1.03300971,11.2041237 L2.25631068,11.2041237 L2.25631068,12.4103093 C2.25631068,12.7185567 2.52815534,12.9597938 2.86796117,12.9597938 L11.2135922,12.9597938 C11.5533981,12.9597938 11.8252427,12.7185567 11.8252427,12.4103093 L11.8252427,11.2041237 L13.0485437,11.2041237 C13.5786408,11.2041237 14,10.8020619 14,10.3195876 L14,4.38247423 C14,3.88659794 13.5650485,3.49793814 13.0485437,3.49793814 Z M3.12621359,0.951546392 L10.9553398,0.951546392 L10.9553398,3.41752577 L3.12621359,3.41752577 L3.12621359,0.951546392 Z M10.9553398,12.1154639 L3.12621359,12.1154639 L3.12621359,9.20721649 L10.9553398,9.20721649 L10.9553398,12.1154639 Z M13.1300971,10.3195876 C13.1165049,10.3329897 13.0893204,10.3463918 13.0485437,10.3463918 L11.8252427,10.3463918 L11.8252427,8.89896907 C11.8252427,8.59072165 11.5533981,8.34948454 11.2135922,8.34948454 L2.86796117,8.34948454 C2.52815534,8.34948454 2.25631068,8.59072165 2.25631068,8.89896907 L2.25631068,10.3463918 L1.03300971,10.3463918 C0.978640777,10.3463918 0.951456311,10.3195876 0.951456311,10.3195876 L0.951456311,4.38247423 C0.965048544,4.36907216 0.99223301,4.3556701 1.03300971,4.3556701 L13.0485437,4.3556701 C13.1029126,4.3556701 13.1300971,4.38247423 13.1300971,4.38247423 L13.1300971,10.3195876 Z" fill-rule="nonzero"></path>
                    <path d="M8.84854369,5.92371134 C8.84854369,6.16494845 9.03883495,6.35257732 9.28349515,6.35257732 C9.52815534,6.35257732 9.7184466,6.16494845 9.7184466,5.92371134 C9.7184466,5.68247423 9.52815534,5.49484536 9.28349515,5.49484536 C9.03883495,5.49484536 8.84854369,5.68247423 8.84854369,5.92371134 Z" fill-rule="nonzero"></path>
                    <path d="M10.9553398,5.92371134 C10.9553398,6.16494845 11.1456311,6.35257732 11.3902913,6.35257732 C11.6349515,6.35257732 11.8252427,6.16494845 11.8252427,5.92371134 C11.8252427,5.68247423 11.6349515,5.49484536 11.3902913,5.49484536 C11.1456311,5.49484536 10.9553398,5.68247423 10.9553398,5.92371134 Z" fill-rule="nonzero"></path>
                </g>
            </g>
        </g>
    </g>
</svg>