<?xml version="1.0" encoding="UTF-8"?>
<svg width="16px" height="16px" viewBox="0 0 16 16" version="1.1" xmlns="http://www.w3.org/2000/svg" xmlns:xlink="http://www.w3.org/1999/xlink">
    <!-- Generator: Sketch 49.3 (51167) - http://www.bohemiancoding.com/sketch -->
    <title>异常处理报表 copy 3</title>
    <desc>Created with Sketch.</desc>
    <defs></defs>
    <g id="Page-1" stroke="none" stroke-width="1" fill="none" fill-rule="evenodd">
        <g id="异常处理报表" transform="translate(-1386.000000, -118.000000)" fill="#678BA4">
            <g id="主体" transform="translate(210.000000, 70.000000)">
                <g id="Group" transform="translate(1172.000000, 49.000000)">
                    <g id="查询" transform="translate(5.000000, 0.000000)">
                        <g id="Shape">
                            <path d="M13.7022998,11.8250692 L11.1849408,9.30771021 C10.8684728,8.99124222 10.3865784,8.93370259 10.0125707,9.13509131 L9.53786874,8.66038932 C10.2643066,7.75414007 10.6958539,6.60334738 10.6958539,5.35186032 C10.6958539,2.39576159 8.30076659,0.000674286976 5.35186032,0.000674286976 C2.39576159,0.000674286976 0.000674286976,2.39576159 0.000674286976,5.35186032 C0.000674286976,8.30076661 2.39576159,10.6958539 5.35186032,10.6958539 C6.60334738,10.6958539 7.75414007,10.2643066 8.66038932,9.53786874 L9.13509131,10.0125707 C8.93370259,10.3865784 8.99124222,10.8684728 9.30771021,11.1849408 L11.8250692,13.7022998 C12.2134618,14.0906923 12.8463977,14.0906923 13.2347903,13.7022998 L13.7022998,13.2347903 C14.0906924,12.8463978 14.0906924,12.2134618 13.7022998,11.8250692 Z M0.993232998,5.35186032 C0.993232998,2.94238811 2.94238813,0.993232982 5.35186034,0.993232982 C7.75414009,0.993232982 9.71048768,2.94238811 9.71048768,5.35186032 C9.71048768,7.76133253 7.7541401,9.7032952 5.35186034,9.7032952 C2.94238811,9.7032952 0.993232998,7.75414007 0.993232998,5.35186032 Z M6.44583264,7.99652579 C4.31326992,7.99652579 2.58348465,6.26745977 2.58348465,4.13417781 C2.58348465,4.07735742 2.58923862,4.02197552 2.59211559,3.96515513 C2.31089062,4.42115673 2.14546418,4.95699459 2.14546418,5.53095243 C2.14546418,7.18018221 3.48254144,8.51654023 5.13105198,8.51654023 C5.76758419,8.51654023 6.35664621,8.31587075 6.84141763,7.97638692 C6.71195345,7.99005257 6.57961228,7.99652579 6.44583264,7.99652579 Z" fill-rule="nonzero"></path>
                        </g>
                    </g>
                </g>
            </g>
        </g>
    </g>
</svg>