<?xml version="1.0" encoding="UTF-8"?>
<svg width="16px" height="16px" viewBox="0 0 16 16" version="1.1" xmlns="http://www.w3.org/2000/svg" xmlns:xlink="http://www.w3.org/1999/xlink">
    <!-- Generator: Sketch 49.3 (51167) - http://www.bohemiancoding.com/sketch -->
    <title>前一天icon</title>
    <desc>Created with Sketch.</desc>
    <defs></defs>
    <g id="Page-1" stroke="none" stroke-width="1" fill="none" fill-rule="evenodd">
        <g id="异常分析" transform="translate(-1168.000000, -118.000000)" fill="#678BA4">
            <g id="主体" transform="translate(210.000000, 70.000000)">
                <g id="前一天" transform="translate(948.000000, 48.000000)">
                    <g id="树-子类常态" transform="translate(12.000000, 2.000000)">
                        <g id="Shape">
                            <path d="M3,3 L9,3 L9,4 L3,4 L3,3 Z M3,6 L9,6 L9,7 L3,7 L3,6 Z M3,9 L6,9 L6,10 L3,10 L3,9 Z" fill-rule="nonzero"></path>
                            <path d="M11,1 L11,10.59 L8.59,13 L1,13 L1,1 L11,1 Z M12,0 L0,0 L0,14 L9,14 L12,11 L12,0 Z" fill-rule="nonzero"></path>
                            <path d="M11,1 L11,10 L8,10 L8,13 L1,13 L1,1 L11,1 Z M12,0 L0,0 L0,14 L9,14 L9,11 L12,11 L12,0 Z" fill-rule="nonzero"></path>
                        </g>
                    </g>
                </g>
            </g>
        </g>
    </g>
</svg>
