<?xml version="1.0" encoding="UTF-8"?>
<svg width="10px" height="12px" viewBox="0 0 10 12" version="1.1" xmlns="http://www.w3.org/2000/svg" xmlns:xlink="http://www.w3.org/1999/xlink">
    <!-- Generator: Sketch 49.3 (51167) - http://www.bohemiancoding.com/sketch -->
    <title>icon</title>
    <desc>Created with Sketch.</desc>
    <defs></defs>
    <g id="Page-1" stroke="none" stroke-width="1" fill="none" fill-rule="evenodd">
        <g id="扫描箱码-copy" transform="translate(-95.000000, -70.000000)" fill="#FFFFFF" fill-rule="nonzero">
            <g id="侧边导航" transform="translate(0.000000, 61.000000)">
                <g id="menu">
                    <path d="M95.6666667,10.6 C95.2984768,10.6 95,10.2418278 95,9.8 C95,9.3581722 95.2984768,9 95.6666667,9 L104.333333,9 C104.701523,9 105,9.3581722 105,9.8 C105,10.2418278 104.701523,10.6 104.333333,10.6 L95.6666667,10.6 Z M95.6666667,15.4 C95.2984768,15.4 95,15.0418278 95,14.6 C95,14.1581722 95.2984768,13.8 95.6666667,13.8 L104.333333,13.8 C104.701523,13.8 105,14.1581722 105,14.6 C105,15.0418278 104.701523,15.4 104.333333,15.4 L95.6666667,15.4 Z M95.6666667,20.2 C95.2984768,20.2 95,19.8418278 95,19.4 C95,18.9581722 95.2984768,18.6 95.6666667,18.6 L104.333333,18.6 C104.701523,18.6 105,18.9581722 105,19.4 C105,19.8418278 104.701523,20.2 104.333333,20.2 L95.6666667,20.2 Z" id="icon"></path>
                </g>
            </g>
        </g>
    </g>
</svg>