<?xml version="1.0" encoding="UTF-8"?>
<svg width="16px" height="16px" viewBox="0 0 16 16" version="1.1" xmlns="http://www.w3.org/2000/svg" xmlns:xlink="http://www.w3.org/1999/xlink">
    <!-- Generator: Sketch 49.3 (51167) - http://www.bohemiancoding.com/sketch -->
    <title>前一天icon copy</title>
    <desc>Created with Sketch.</desc>
    <defs></defs>
    <g id="Page-1" stroke="none" stroke-width="1" fill="none" fill-rule="evenodd">
        <g id="设备OEE" transform="translate(-1148.000000, -118.000000)">
            <g id="主体" transform="translate(210.000000, 70.000000)"></g>
            <g id="会议类型" transform="translate(1149.000000, 119.000000)" fill="#678BA4">
                <g id="Shape">
                    <path d="M12.9839177,0 L1.01920471,0 C0.459580039,0 0,0.458016972 0,1.0176418 L0,12.9823582 C0,13.5451094 0.458016841,14 1.01764151,14 L12.9823545,14 C13.5419792,14 13.999996,13.5435462 13.999996,12.9823582 L13.999996,1.0176418 C14.0015592,0.458016972 13.5435424,1.11071888e-16 12.9839177,0 Z M1.01920471,1.0176418 L12.9839177,1.0176418 L12.9839177,3.32179544 L1.01920471,3.32179544 L1.01920471,1.0176418 Z M12.9839177,12.9823582 L1.01920471,12.9823582 L1.01920471,4.33943725 L12.9839177,4.33943725 L12.9839177,12.9823582 Z" fill-rule="nonzero"></path>
                    <path d="M11.4648915,7.26417838 L5.80685756,7.26417838 C5.51139887,7.26417838 5.27174904,6.98109549 5.27174904,6.63208919 C5.27174904,6.28308289 5.51139887,6 5.80685756,6 L11.4648915,6 C11.7603502,6 12,6.28308289 12,6.63208919 C12,6.98109549 11.7603502,7.26417838 11.4648915,7.26417838 Z M4.02589823,7.26417838 L3.53510852,7.26417838 C3.23964983,7.26417838 3,6.98109549 3,6.63208919 C3,6.28308289 3.23964983,6 3.53510852,6 L4.02589823,6 C4.32135692,6 4.56100675,6.28308289 4.56100675,6.63208919 C4.55936531,6.98109549 4.32135692,7.26417838 4.02589823,7.26417838 Z M11.4648915,10 L5.80685756,10 C5.51139887,10 5.27174904,9.71691711 5.27174904,9.36791081 C5.27174904,9.01890451 5.51139887,8.73582162 5.80685756,8.73582162 L11.4648915,8.73582162 C11.7603502,8.73582162 12,9.01890451 12,9.36791081 C12,9.71691711 11.7603502,10 11.4648915,10 Z M4.02589823,10 L3.53510852,10 C3.23964983,10 3,9.71691711 3,9.36791081 C3,9.01890451 3.23964983,8.73582162 3.53510852,8.73582162 L4.02589823,8.73582162 C4.32135692,8.73582162 4.56100675,9.01890451 4.56100675,9.36791081 C4.56100675,9.71691711 4.32135692,10 4.02589823,10 Z" fill-rule="nonzero"></path>
                </g>
            </g>
        </g>
    </g>
</svg>