<?xml version="1.0" encoding="UTF-8"?>
<svg width="16px" height="16px" viewBox="0 0 16 16" version="1.1" xmlns="http://www.w3.org/2000/svg" xmlns:xlink="http://www.w3.org/1999/xlink">
    <!-- Generator: Sketch 49.3 (51167) - http://www.bohemiancoding.com/sketch -->
    <title>前一天icon copy 3</title>
    <desc>Created with Sketch.</desc>
    <defs></defs>
    <g id="Page-1" stroke="none" stroke-width="1" fill="none" fill-rule="evenodd">
        <g id="设备OEE" transform="translate(-1243.000000, -118.000000)">
            <g id="主体" transform="translate(210.000000, 70.000000)"></g>
            <g id="图表-柱状图" transform="translate(1244.000000, 120.000000)" fill="#678BA4">
                <g id="Shape">
                    <path d="M0.00131538462,0.0826096544 C0.00131538462,0.0623008343 0.00900307692,0.0420075089 0.0243784615,0.0265051251 C0.0397692308,0.0110197855 0.0599184615,0.00327711561 0.0800846154,0.00327711561 L0.578426031,0.00327711561 C0.598590646,0.00327711561 0.618739877,0.0110197855 0.634132185,0.0265051251 C0.649507569,0.0420059595 0.657195262,0.0622992849 0.657195262,0.0826096544 L0.657195262,12.3339971 L13.9147342,12.3339971 C13.9348834,12.3339971 13.9550634,12.3417397 13.9704234,12.3572421 C13.9858142,12.3727275 13.9935034,12.3930363 13.9935034,12.4133296 L13.9935034,12.9152349 C13.9935034,12.9355282 13.9858158,12.9558525 13.9704234,12.9713223 C13.9550481,12.9868232 13.9348834,12.9945674 13.9147342,12.9945674 L0.00131538462,12.9945674 L0.00131544615,0.0826099642 L0.00131538462,0.0826096544 Z" fill-rule="nonzero"></path>
                    <path d="M4.81113846,0.241274732 C4.81113846,0.180363766 4.83420154,0.119451251 4.88036154,0.0729952324 C4.92650462,0.0265221692 4.98698308,0.00327711561 5.04744615,0.00327711561 L7.19836554,0.00327711561 C7.258844,0.00327711561 7.319324,0.0265051251 7.36545015,0.0729952324 C7.41159323,0.119468296 7.43467323,0.180379261 7.43467323,0.241274732 L7.43467323,11.4532155 L4.81113797,11.4532155 L4.81113797,0.241275042 L4.81113846,0.241274732 Z" fill-rule="nonzero"></path>
                    <path d="M1.53172308,3.54414243 C1.53172308,3.48323147 1.55478615,3.42231895 1.60094615,3.37586293 C1.64708923,3.32938987 1.70756769,3.30614482 1.76803077,3.30614482 L3.91895065,3.30614482 C3.97942911,3.30614482 4.03990911,3.32937282 4.08603526,3.37586293 C4.13217834,3.422336 4.15525834,3.48324696 4.15525834,3.54414243 L4.15525834,11.4532316 L1.53172283,11.4532316 L1.53172283,3.54414249 L1.53172308,3.54414243 Z" fill-rule="nonzero"></path>
                    <path d="M8.09056923,6.84702563 C8.09056923,6.78611466 8.11364923,6.72520215 8.15979231,6.67874613 C8.20593538,6.63229011 8.26641385,6.60902801 8.32687692,6.60902801 L10.4777968,6.60902801 C10.5382753,6.60902801 10.5987553,6.63227306 10.6448814,6.67874613 C10.6910076,6.72521919 10.7141045,6.78613015 10.7141045,6.84702563 L10.7141045,11.4532315 L8.09056886,11.4532315 L8.09056886,6.84702581 L8.09056923,6.84702563 Z" fill-rule="nonzero"></path>
                    <path d="M11.3699846,10.1498933 C11.3699846,10.0889824 11.3930646,10.0280698 11.4392077,9.98161383 C11.4853508,9.93515781 11.5458292,9.91189571 11.6062923,9.91189571 L13.7572122,9.91189571 C13.8176906,9.91189571 13.8781706,9.93514076 13.9242968,9.98161383 C13.970423,10.0280869 13.9935199,10.0889979 13.9935199,10.1498933 L13.9935199,11.4532476 L11.369984,11.4532476 L11.369984,10.1498933 L11.3699846,10.1498933 Z" fill-rule="nonzero"></path>
                </g>
            </g>
        </g>
    </g>
</svg>