<?xml version="1.0" encoding="UTF-8"?>
<svg width="16px" height="16px" viewBox="0 0 16 16" version="1.1" xmlns="http://www.w3.org/2000/svg" xmlns:xlink="http://www.w3.org/1999/xlink">
    <!-- Generator: Sketch 49.3 (51167) - http://www.bohemiancoding.com/sketch -->
    <title>前一天icon copy 5</title>
    <desc>Created with Sketch.</desc>
    <defs></defs>
    <g id="Page-1" stroke="none" stroke-width="1" fill="none" fill-rule="evenodd">
        <g id="设备OEE" transform="translate(-1374.000000, -118.000000)">
            <g id="主体" transform="translate(210.000000, 70.000000)"></g>
            <g id="设备状态" transform="translate(1376.000000, 120.000000)">
                <g>
                    <path d="M2.82562385e-07,7.49247731 C2.82562385e-07,7.4648721 0.026474612,7.43726619 0.0794621232,7.41621205 C0.132430208,7.39515018 0.20185402,7.38461538 0.271260172,7.38461538 L2.74032194,7.38461538 C2.80974575,7.38461538 2.87917133,7.39514246 2.93211999,7.41621205 C2.98508807,7.43727391 3.01158183,7.46487912 3.01158183,7.49247731 L3.01158183,11.0769231 L0,11.0769231 L0,7.49247733 L2.82562385e-07,7.49247731 Z" id="Shape" fill="#678BA4" fill-rule="nonzero"></path>
                    <path d="M4.64285743,3.90803153 C4.64285743,3.85282112 4.66933175,3.7976093 4.72231927,3.75550101 C4.77528735,3.71337728 4.84471116,3.69230769 4.91411731,3.69230769 L7.38317908,3.69230769 C7.45260289,3.69230769 7.52202847,3.71336183 7.57497713,3.75550101 C7.62794522,3.79762475 7.65443897,3.85283516 7.65443897,3.90803153 L7.65443897,11.0769231 L4.64285714,11.0769231 L4.64285714,3.90803159 L4.64285743,3.90803153 Z" id="Shape-Copy" fill="#678BA4" fill-rule="nonzero"></path>
                    <path d="M9.28571457,9.28470019 C9.28571457,9.27089759 9.3121889,9.25709463 9.36517641,9.24656756 C9.41814449,9.23603663 9.48756831,9.23076923 9.55697446,9.23076923 L12.0260362,9.23076923 C12.09546,9.23076923 12.1648856,9.23603277 12.2178343,9.24656756 C12.2708024,9.25709849 12.2972961,9.2709011 12.2972961,9.28470019 L12.2972961,11.0769231 L9.28571429,11.0769231 L9.28571429,9.28470021 L9.28571457,9.28470019 Z" id="Shape-Copy-2" fill="#678BA4" fill-rule="nonzero"></path>
                    <polygon id="Path-4" stroke="#678BA4" stroke-width="0.5" points="4.64285714 11.0920222 4.64285714 0 7.76749093 0 7.76749093 11.0920222"></polygon>
                    <polygon id="Path-4-Copy" stroke="#678BA4" stroke-width="0.5" points="0 11.0920222 0 0 3.12463379 0 3.12463379 11.0920222"></polygon>
                    <polygon id="Path-4-Copy-2" stroke="#678BA4" stroke-width="0.5" points="9.28571429 11.0920222 9.28571429 0 12.4103481 0 12.4103481 11.0920222"></polygon>
                </g>
            </g>
        </g>
    </g>
</svg>