<?xml version="1.0" encoding="UTF-8"?>
<svg width="16px" height="16px" viewBox="0 0 16 16" version="1.1" xmlns="http://www.w3.org/2000/svg" xmlns:xlink="http://www.w3.org/1999/xlink">
    <!-- Generator: Sketch 49.3 (51167) - http://www.bohemiancoding.com/sketch -->
    <title>按子类</title>
    <desc>Created with Sketch.</desc>
    <defs></defs>
    <g id="Page-1" stroke="none" stroke-width="1" fill="none" fill-rule="evenodd">
        <g id="异常分析" transform="translate(-1168.000000, -118.000000)">
            <g id="主体" transform="translate(210.000000, 70.000000)">
                <g id="前一天" transform="translate(948.000000, 51.000000)">
                    <g id="设备状态" transform="translate(12.000000, 0.000000)">
                        <g>
                            <path d="M2.60826817e-07,6.8681042 C2.60826817e-07,6.84279942 0.0244381034,6.817494 0.0733496522,6.79819438 C0.122243269,6.77888766 0.186326788,6.76923077 0.250394005,6.76923077 L2.52952794,6.76923077 C2.59361146,6.76923077 2.65769661,6.77888058 2.7065723,6.79819438 C2.75546591,6.81750109 2.77992169,6.84280586 2.77992169,6.8681042 L2.77992169,10.1538462 L0,10.1538462 L0,6.86810422 L2.60826817e-07,6.8681042 Z" id="Shape" fill="#678BA4" fill-rule="nonzero"></path>
                            <path d="M4.28571455,3.58236224 C4.28571455,3.53175269 4.31015239,3.48114186 4.35906394,3.4425426 C4.40795755,3.40392918 4.47204107,3.38461538 4.53610829,3.38461538 L6.81524223,3.38461538 C6.87932575,3.38461538 6.9434109,3.40391501 6.99228658,3.4425426 C7.0411802,3.48115602 7.06563597,3.53176556 7.06563597,3.58236224 L7.06563597,10.1538462 L4.28571429,10.1538462 L4.28571429,3.58236229 L4.28571455,3.58236224 Z" id="Shape-Copy" fill="#678BA4" fill-rule="nonzero"></path>
                            <path d="M8.57142883,8.51097518 C8.57142883,8.49832279 8.59586667,8.48567008 8.64477822,8.47602026 C8.69367184,8.46636691 8.75775536,8.46153846 8.82182258,8.46153846 L11.1009565,8.46153846 C11.16504,8.46153846 11.2291252,8.46636337 11.2780009,8.47602026 C11.3268945,8.48567362 11.3513503,8.49832601 11.3513503,8.51097518 L11.3513503,10.1538462 L8.57142857,10.1538462 L8.57142857,8.51097519 L8.57142883,8.51097518 Z" id="Shape-Copy-2" fill="#678BA4" fill-rule="nonzero"></path>
                            <polygon id="Path-4" stroke="#678BA4" stroke-width="0.5" points="4.28571429 10.167687 4.28571429 0 7.16999163 0 7.16999163 10.167687"></polygon>
                            <polygon id="Path-4-Copy" stroke="#678BA4" stroke-width="0.5" points="0 10.167687 0 0 2.88427734 0 2.88427734 10.167687"></polygon>
                            <polygon id="Path-4-Copy-2" stroke="#678BA4" stroke-width="0.5" points="8.57142857 10.167687 8.57142857 0 11.4557059 0 11.4557059 10.167687"></polygon>
                        </g>
                    </g>
                </g>
            </g>
        </g>
    </g>
</svg>