<?xml version="1.0" encoding="UTF-8"?>
<svg width="16px" height="16px" viewBox="0 0 16 16" version="1.1" xmlns="http://www.w3.org/2000/svg" xmlns:xlink="http://www.w3.org/1999/xlink">
    <!-- Generator: Sketch 49.3 (51167) - http://www.bohemiancoding.com/sketch -->
    <title>刷新</title>
    <desc>Created with Sketch.</desc>
    <defs></defs>
    <g id="Page-1" stroke="none" stroke-width="1" fill="none" fill-rule="evenodd">
        <g id="设备OEE" transform="translate(-1104.000000, -118.000000)">
            <g id="主体" transform="translate(210.000000, 70.000000)"></g>
            <g id="刷新icon" transform="translate(1107.000000, 119.000000)" fill="#678BA4">
                <g id="刷新">
                    <path d="M4.6879892,4.7427283 C4.55735493,4.7427283 4.45195682,4.84678692 4.45195682,4.97576099 C4.45195682,5.04317926 4.48164642,5.10473506 4.52766532,5.14723788 L0.431983806,2.81251409 C0.454251012,2.81984216 0.478002699,2.82423901 0.503238866,2.82423901 C0.626450742,2.82423901 0.724426451,2.72604284 0.724426451,2.60586246 C0.724426451,2.48421646 0.624966262,2.38748591 0.503238866,2.38748591 C0.483940621,2.38748591 0.466126856,2.39041714 0.44831309,2.39481398 L4.52469636,0.0703494927 C4.4757085,0.112852311 4.44453441,0.175873732 4.44453441,0.24475761 C4.44453441,0.37373168 4.54993252,0.477790304 4.6805668,0.477790304 C4.79932524,0.477790304 4.89730094,0.392784667 4.91363023,0.279932356 L4.91363023,4.90687711 C4.8854251,4.81307779 4.79487179,4.7427283 4.6879892,4.7427283 Z" id="Shape" fill-rule="nonzero"></path>
                    <path d="M4.6805668,0.479255919 C4.54993252,0.479255919 4.44453441,0.375197294 4.44453441,0.246223224 C4.44453441,0.177339346 4.4757085,0.114317926 4.52469636,0.0718151071 L4.60782726,0.0249154453 C4.63157895,0.0175873732 4.65681511,0.0131905299 4.68205128,0.0131905299 C4.80080972,0.0131905299 4.89878543,0.0981961669 4.91511471,0.211048478 L4.91511471,0.2843292 C4.89730094,0.394250282 4.79932524,0.479255919 4.6805668,0.479255919 Z M4.6879892,5.2102593 C4.66423752,5.2102593 4.64048583,5.20732807 4.61821862,5.2 L4.52766532,5.14870349 C4.48164642,5.10620068 4.45195682,5.04464487 4.45195682,4.97722661 C4.45195682,4.84825254 4.55735493,4.74419391 4.6879892,4.74419391 C4.79487179,4.74419391 4.8854251,4.8145434 4.91363023,4.90980834 L4.91363023,5.04611048 C4.8854251,5.13990981 4.79487179,5.2102593 4.6879892,5.2102593 Z M0.725910931,2.60586246 C0.725910931,2.72750846 0.626450742,2.82423901 0.504723347,2.82423901 C0.479487179,2.82423901 0.455735493,2.81984216 0.433468286,2.81251409 L0.359244265,2.77001127 C0.313225371,2.73043968 0.283535762,2.67034949 0.283535762,2.60439684 C0.283535762,2.54430665 0.307287449,2.49007892 0.347368421,2.45050733 L0.451282051,2.39188275 C0.469095816,2.38748591 0.486909582,2.38455468 0.506207827,2.38455468 C0.626450742,2.38748591 0.725910931,2.48568207 0.725910931,2.60586246 Z" id="Shape" fill-rule="nonzero"></path>
                    <path d="M6.36545209,12.5192785 C6.49608637,12.5192785 6.60148448,12.6233371 6.60148448,12.7523112 C6.60148448,12.8197294 6.57179487,12.8812852 6.52577598,12.923788 L10.6214575,10.5890643 C10.5991903,10.5963923 10.5754386,10.6007892 10.5502024,10.6007892 C10.4269906,10.6007892 10.3290148,10.502593 10.3290148,10.3824126 C10.3290148,10.2607666 10.428475,10.1640361 10.5502024,10.1640361 C10.5695007,10.1640361 10.5873144,10.1669673 10.6051282,10.1713641 L6.53022942,7.84689966 C6.57921727,7.88940248 6.61039136,7.9524239 6.61039136,8.02130778 C6.61039136,8.15028185 6.50499325,8.25434047 6.37435897,8.25434047 C6.25560054,8.25434047 6.15762483,8.16933484 6.14129555,8.05648253 L6.14129555,12.6834273 C6.16950067,12.589628 6.2585695,12.5192785 6.36545209,12.5192785 Z" id="Shape" fill-rule="nonzero"></path>
                    <path d="M6.37287449,8.25580609 C6.50350877,8.25580609 6.60890688,8.15174746 6.60890688,8.02277339 C6.60890688,7.95388952 6.57773279,7.89086809 6.52874494,7.84836528 L6.44561404,7.80146561 C6.42186235,7.79413754 6.39662618,7.7897407 6.37139001,7.7897407 C6.25263158,7.7897407 6.15465587,7.87474634 6.13832659,7.98759865 L6.13832659,8.06087937 C6.15762483,8.16933484 6.25560054,8.25580609 6.37287449,8.25580609 Z M6.36545209,12.9868095 C6.38920378,12.9868095 6.41295547,12.9838782 6.43522267,12.9765502 L6.52577598,12.9252537 C6.57179487,12.8827508 6.60148448,12.821195 6.60148448,12.7537768 C6.60148448,12.6248027 6.49608637,12.5207441 6.36545209,12.5207441 C6.2585695,12.5207441 6.16801619,12.5910936 6.13981107,12.6863585 L6.13981107,12.8226607 C6.16950067,12.91646 6.2585695,12.9868095 6.36545209,12.9868095 Z M10.3290148,10.3824126 C10.3290148,10.5040586 10.428475,10.6007892 10.5502024,10.6007892 C10.5754386,10.6007892 10.5991903,10.5963923 10.6214575,10.5890643 L10.6956815,10.5465614 C10.7417004,10.5069899 10.77139,10.4468997 10.77139,10.380947 C10.77139,10.3208568 10.7476383,10.2666291 10.7075574,10.2270575 L10.6036437,10.1684329 C10.58583,10.1640361 10.5680162,10.1611048 10.5487179,10.1611048 C10.428475,10.1640361 10.3290148,10.2607666 10.3290148,10.3824126 Z" id="Shape" fill-rule="nonzero"></path>
                    <path d="M10.997031,6.92795941 C10.9079622,3.62886133 8.17948718,0.97903044 4.82159244,0.959977452 L4.82159244,4.05388952 C7.30364372,4.06561443 9.52145749,5.18094701 10.997031,6.92795941 Z M0.00148448043,6.03686584 C0.0905533063,9.33596392 2.81902834,11.9857948 6.17692308,12.0048478 L6.17692308,8.91240135 C3.69487179,8.90067644 1.47557355,7.78534386 0.00148448043,6.03686584 Z" id="Shape" fill-rule="nonzero"></path>
                </g>
            </g>
        </g>
    </g>
</svg>