<?xml version="1.0" encoding="UTF-8"?>
<svg width="16px" height="16px" viewBox="0 0 16 16" version="1.1" xmlns="http://www.w3.org/2000/svg" xmlns:xlink="http://www.w3.org/1999/xlink">
    <!-- Generator: Sketch 49.3 (51167) - http://www.bohemiancoding.com/sketch -->
    <title>前一天icon copy 2</title>
    <desc>Created with Sketch.</desc>
    <defs></defs>
    <g id="Page-1" stroke="none" stroke-width="1" fill="none" fill-rule="evenodd">
        <g id="设备OEE" transform="translate(-1193.000000, -118.000000)">
            <g id="主体" transform="translate(210.000000, 70.000000)"></g>
            <g id="仪表盘" transform="translate(1193.000000, 119.000000)">
                <g transform="translate(-0.847682, -1.056338)">
                    <path d="M8.84768192,1.05633803 C4.42949727,1.05633803 0.847694804,4.66276965 0.847694804,9.11157577 C0.843127394,11.68844 2.07222742,14.1122909 4.15502256,15.6338028 L4.06280175,15.541886 L5.25763343,14.3499925 C3.61061685,13.2022929 2.53139776,11.2977502 2.53139776,9.14081439 C2.53190262,5.63369323 5.38098718,2.79032218 8.89446547,2.79032218 C12.4079438,2.79032218 15.2570283,5.63335715 15.2570283,9.14047831 C15.2570283,11.0616568 14.4009567,12.7821979 13.050292,13.9463652 L14.2018741,15.095241 C15.8906549,13.5634609 16.8517728,11.389881 16.847669,9.11174381 C16.847669,4.66293768 13.2658666,1.05633803 8.84768192,1.05633803 Z M14.2081007,14.5739871 L13.591332,13.958632 C14.8952362,12.6938318 15.6310733,10.9559935 15.6312967,9.14081439 C15.6312967,5.43322389 12.609214,2.41694174 8.89446547,2.41694174 C5.17971694,2.41694174 2.15763421,5.43322389 2.15763421,9.14081439 C2.15942371,11.1833829 3.09001132,13.1146327 4.68731166,14.3906577 L4.02056192,15.0559201 C2.26045705,13.6022234 1.22196321,11.4125201 1.22196321,9.11174381 C1.22196321,4.87600987 4.64288411,1.43005455 8.84768192,1.43005455 C13.0524797,1.43005455 16.4734006,4.87600987 16.4734006,9.11174381 C16.4730073,11.1602913 15.6582425,13.124907 14.2081007,14.5739871 Z" id="Shape" fill="#84A1B6" fill-rule="nonzero"></path>
                    <path d="M13.3509934,13.9107798 C15.8526595,11.5941556 16.1444374,7.71277123 14.0177762,5.04088075 L14.9765457,4.22535211 C17.4510897,7.4187472 17.1241062,11.9882877 14.2206598,14.7887324 L13.3509934,13.9107798 Z" id="Shape" fill="#678BA4" fill-rule="nonzero"></path>
                    <path d="M1.14969947,14.5662633 C3.65136557,12.2496392 3.94314349,8.36825482 1.81648233,5.69636433 L2.77525183,4.8808357 C5.24979581,8.07423079 4.92281225,12.6437712 2.01936584,15.444216 L1.14969947,14.5662633 Z" id="Shape-Copy" fill="#84A1B6" fill-rule="nonzero" transform="translate(2.792084, 10.162526) rotate(-193.000000) translate(-2.792084, -10.162526) "></path>
                    <path d="M5.49109777,7.67140781 C7.99276387,5.35478371 8.28454179,1.47339929 6.15788063,-1.19849119 L7.11665013,-2.01401983 C9.5911941,1.17937527 9.26421055,5.74891572 6.36076414,8.54936046 L5.49109777,7.67140781 Z" id="Shape-Copy-2" fill="#84A1B6" fill-rule="nonzero" transform="translate(7.133482, 3.267670) rotate(-109.000000) translate(-7.133482, -3.267670) "></path>
                    <path d="M8.22894293,7.55149858 C10.730609,5.23487448 11.022387,1.35349007 8.8957258,-1.31840042 L9.85449529,-2.13392905 C12.3290393,1.05946604 12.0020557,5.6290065 9.09860931,8.42945123 L8.22894293,7.55149858 Z" id="Shape-Copy-3" fill="#84A1B6" fill-rule="nonzero" transform="translate(9.871327, 3.147761) rotate(-85.000000) translate(-9.871327, -3.147761) "></path>
                    <path d="M14.9360296,4.54767497 C17.2362841,7.61273302 16.921281,11.884438 14.1957903,14.5859398 L13.5762477,13.9728214 C16.0275068,11.6150937 16.3153702,7.8157819 14.2468413,5.12211767 L14.9360296,4.54750755 L14.9360296,4.54767497 Z M14.9916448,4.01441936 L13.7238223,5.07188952 C14.7102941,6.21458083 15.2515476,7.66906947 15.2497734,9.17251634 C15.2497734,11.0867114 14.3898517,12.8009985 13.0331126,13.9609341 L14.1898738,15.1056338 C17.3957011,12.2094224 17.7483311,7.33326002 14.9919829,4.01408451 L14.9916448,4.01441936 Z" id="Shape" fill="#678BA4" fill-rule="nonzero"></path>
                    <g id="Group" transform="translate(9.784717, 9.309283) rotate(30.000000) translate(-9.784717, -9.309283) translate(8.672134, 5.664917)" fill="#678BA4">
                        <path d="M1.66882388,5.19488275 L1.66882388,0.561045298 C1.66882387,0.251188532 1.41978625,0 1.11258278,0 C0.805379313,0 0.556341693,0.251188532 0.55634168,0.561045298 L0.55634168,5.19488275 C0.120284239,5.44881505 -0.0923119781,5.96650065 0.0380074907,6.45706018 C0.168326959,6.94761971 0.609067019,7.28873239 1.11258278,7.28873239 C1.61609854,7.28873239 2.0568386,6.94761971 2.18715807,6.45706018 C2.31747754,5.96650065 2.10488132,5.44881505 1.66882388,5.19488275 Z M1.11258278,6.91367267 C0.776380796,6.91457805 0.481708018,6.6870656 0.394800969,6.35948407 C0.30789392,6.03190254 0.450535345,5.68635833 0.742255597,5.51778653 L0.927169081,5.4096474 L0.927169081,0.561045298 C0.927169081,0.457759706 1.01018162,0.374030191 1.11258278,0.374030191 C1.21498394,0.374030191 1.29799648,0.457759706 1.29799648,0.561045298 L1.29799648,5.41032012 L1.48290997,5.51862743 C1.77463022,5.68719922 1.91727164,6.03274344 1.83036459,6.36032497 C1.74345755,6.6879065 1.44878477,6.91541894 1.11258278,6.91451357 L1.11258278,6.91367267 Z" id="Shape" fill-rule="nonzero"></path>
                        <rect id="Rectangle" x="0.741721854" y="0.316901408" width="1" height="5.28169014"></rect>
                        <ellipse id="Oval" cx="1.11258278" cy="6.28521127" rx="1" ry="1"></ellipse>
                    </g>
                </g>
            </g>
        </g>
    </g>
</svg>