<?xml version="1.0" encoding="UTF-8"?>
<svg width="16px" height="16px" viewBox="0 0 16 16" version="1.1" xmlns="http://www.w3.org/2000/svg" xmlns:xlink="http://www.w3.org/1999/xlink">
    <!-- Generator: Sketch 49.3 (51167) - http://www.bohemiancoding.com/sketch -->
    <title>前一天icon copy 4</title>
    <desc>Created with Sketch.</desc>
    <defs></defs>
    <g id="Page-1" stroke="none" stroke-width="1" fill="none" fill-rule="evenodd">
        <g id="设备OEE" transform="translate(-1306.000000, -118.000000)">
            <g id="主体" transform="translate(210.000000, 70.000000)"></g>
            <g id="分析" transform="translate(1307.000000, 120.000000)" fill="#678BA4">
                <g id="Shape">
                    <path d="M0.146135458,12.0236515 L13.9966534,12.0236515 L13.9966534,12.9902905 L0.146135458,12.9902905 L0.146135458,12.0236515 Z M0.00334661355,8.44708714 L1.80248606,7.35616598 L5.05807171,8.94421577 L8.61351394,3.73817427 L12.2403506,6.44476349 L13.9966534,6.36190871 L13.9966534,6.84522822 L12.0404462,6.94189212 L8.75630279,4.52529461 L5.24369721,9.6346722 L1.84532271,7.96376763 L0.00334661355,9.0546888 L0.00334661355,8.44708714 Z M12.311745,5.69907054 L13.1399203,5.65764315 L13.1399203,2.95105394 C13.1399203,2.71629876 12.9685737,2.4953527 12.7258327,2.4953527 L11.4692908,2.4953527 C11.2265498,2.4953527 10.9980876,2.70248963 10.9980876,2.95105394 L10.9980876,4.71862241 L12.311745,5.69907054 Z M11.8262629,7.71520332 L10.9980876,7.12141079 L10.9980876,11.333195 L13.1399203,11.333195 L13.1399203,7.6599668 L11.8262629,7.71520332 Z M8.42788845,2.79915353 L9.71298805,3.7519834 L9.71298805,0.341128631 C9.71298805,0.106373444 9.55592032,0.00970954357 9.31317928,0.00970954357 L8.05663745,0.00970954357 C7.8281753,0.00970954357 7.57115538,0.106373444 7.57115538,0.341128631 L7.57115538,4.02816598 L8.42788845,2.79915353 Z M8.78486056,5.47812448 L7.57115538,7.21807469 L7.57115538,11.333195 L9.71298805,11.333195 L9.71298805,6.15477178 L8.78486056,5.47812448 Z M5.32937052,10.5322656 L4.14422311,9.97990041 L4.14422311,11.333195 L6.42884462,11.333195 L6.42884462,9.06849793 L5.32937052,10.5322656 Z M4.85816733,8.07424066 L6.42884462,5.90620747 L6.42884462,5.61621577 C6.42884462,5.38146058 6.1718247,5.25717842 5.92908367,5.25717842 L4.67254183,5.25717842 C4.4298008,5.25717842 4.14422311,5.36765145 4.14422311,5.61621577 L4.14422311,7.77043983 L4.85816733,8.07424066 Z M1.80248606,6.54142739 L3.00191235,7.12141079 L3.00191235,4.08340249 C3.00191235,3.8486473 2.7734502,3.73817427 2.53070916,3.73817427 L1.27416733,3.73817427 C1.04570518,3.73817427 0.860079681,3.8486473 0.860079681,4.08340249 L0.860079681,7.12141079 L1.80248606,6.54142739 Z M1.88815936,8.80612448 L0.860079681,9.42753527 L0.860079681,11.2503402 C0.860079681,11.2779585 0.845800797,11.333195 0.860079681,11.333195 L2.9590757,11.333195 C2.9590757,11.333195 3.00191235,11.2779585 3.00191235,11.2503402 L3.00191235,9.3446805 L1.88815936,8.80612448 Z" fill-rule="nonzero"></path>
                </g>
            </g>
        </g>
    </g>
</svg>