<?xml version="1.0" encoding="UTF-8"?>
<svg width="37px" height="39px" viewBox="0 0 37 39" version="1.1" xmlns="http://www.w3.org/2000/svg" xmlns:xlink="http://www.w3.org/1999/xlink">
    <!-- Generator: Sketch 49.3 (51167) - http://www.bohemiancoding.com/sketch -->
    <title>设备 (2)</title>
    <desc>Created with Sketch.</desc>
    <defs></defs>
    <g id="Page-1" stroke="none" stroke-width="1" fill="none" fill-rule="evenodd">
        <g id="设备OEE" transform="translate(-419.000000, -468.000000)">
            <g id="主体" transform="translate(210.000000, 70.000000)">
                <g id="Group-2" transform="translate(193.000000, 376.000000)">
                    <g id="Group">
                        <g id="设备-(2)" transform="translate(16.000000, 22.000000)">
                            <g id="Shape">
                                <path d="M15.5623071,39 L2.10776169,39 C0.94410159,39 0,37.9246484 0,36.596785 L0,2.403215 C0,1.07970529 0.94410159,0 2.10776169,0 L15.5623071,0 C16.7259672,0 17.6700688,1.07535164 17.6700688,2.403215 L17.6700688,36.596785 C17.6700688,37.9202947 16.7259672,39 15.5623071,39 Z M2.10776169,2.29437374 C2.05506765,2.29437374 2.01115595,2.3422639 2.01115595,2.403215 L2.01115595,36.596785 C2.01115595,36.6577361 2.05506765,36.7056263 2.10776169,36.7056263 L15.5623071,36.7056263 C15.6150012,36.7056263 15.6589129,36.6577361 15.6589129,36.596785 L15.6589129,2.403215 C15.6589129,2.3422639 15.6150012,2.29437374 15.5623071,2.29437374 L2.10776169,2.29437374 Z M34.8922383,39 L21.209352,39 C20.0456919,39 19.1015903,37.9246484 19.1015903,36.596785 L19.1015903,13.0435365 C19.1015903,11.7200268 20.0456919,10.6403215 21.209352,10.6403215 L34.8922383,10.6403215 C36.0558984,10.6403215 37,11.7200268 37,13.0435365 L37,36.596785 C37,37.9202947 36.0558984,39 34.8922383,39 Z M21.209352,12.9303416 C21.156658,12.9303416 21.1127463,12.9782317 21.1127463,13.0391829 L21.1127463,36.5924313 C21.1127463,36.6533825 21.156658,36.7012726 21.209352,36.7012726 L34.8922383,36.7012726 C34.9449324,36.7012726 34.9888441,36.6533825 34.9888441,36.5924313 L34.9888441,13.0391829 C34.9888441,12.9782317 34.9449324,12.9303416 34.8922383,12.9303416 L21.209352,12.9303416 Z" fill="#678BA4" fill-rule="nonzero"></path>
                                <path d="M3.7,6.09375 L10.2695325,6.09375 L10.2695325,7.24968539 L3.7,7.24968539 L3.7,6.09375 Z M3.7,9.36816773 L10.2695325,9.36816773 L10.2695325,10.5241031 L3.7,10.5241031 L3.7,9.36816773 Z M3.7,12.6425855 L10.2695325,12.6425855 L10.2695325,13.7985208 L3.7,13.7985208 L3.7,12.6425855 Z M27.3852382,19.239768 L28.3848547,19.239768 L28.3848547,35.34375 L27.3852382,35.34375 L27.3852382,19.239768 Z M22.6403333,19.239768 L23.6399499,19.239768 L23.6399499,35.34375 L22.6403333,35.34375 L22.6403333,19.239768 Z M11.6401858,33.5285359 C11.6401858,33.9636598 11.9457455,34.3152752 12.3211473,34.3152752 C12.6965492,34.3152752 13.0021088,33.9636598 13.0021088,33.5285359 C13.0021088,33.0934119 12.6965492,32.7417966 12.3211473,32.7417966 C11.9457455,32.7417966 11.6401858,33.0934119 11.6401858,33.5285359 Z M30.7507595,16.5806771 C30.7507595,17.3937876 31.3225925,18.0530663 32.0253797,18.0530663 C32.7281669,18.0530663 33.3,17.3937876 33.3,16.5806771 C33.3,15.7675667 32.7281669,15.1038927 32.0253797,15.1038927 C31.3225925,15.1038927 30.7507595,15.7631715 30.7507595,16.5806771 Z M7.7901342,33.5285359 C7.7901342,33.9636598 8.09569385,34.3152752 8.47109571,34.3152752 C8.84649757,34.3152752 9.15205722,33.9636598 9.15205722,33.5285359 C9.15205722,33.0934119 8.84649757,32.7417966 8.47109571,32.7417966 C8.09569385,32.7417966 7.7901342,33.0934119 7.7901342,33.5285359 Z M3.94008258,33.5285359 C3.94008258,33.8098281 4.07103672,34.0691444 4.28056334,34.2097906 C4.49008996,34.3504367 4.75199823,34.3504367 4.96152485,34.2097906 C5.17105147,34.0691444 5.3020056,33.8098281 5.3020056,33.5285359 C5.3020056,33.2472436 5.17105147,32.9879273 4.96152485,32.8472812 C4.75199823,32.706635 4.49008996,32.706635 4.28056334,32.8472812 C4.07103672,32.9879273 3.94008258,33.2472436 3.94008258,33.5285359 Z M11.5005014,23.4723375 L13.1374281,23.4723375 L13.1374281,29.2388289 L11.5005014,29.2388289 L11.5005014,23.4723375 Z M7.65044979,23.4723375 L9.28737649,23.4723375 L9.28737649,29.2388289 L7.65044979,29.2388289 L7.65044979,23.4723375 Z M3.80039817,23.4723375 L5.44169002,23.4723375 L5.44169002,29.2388289 L3.80476331,29.2388289 L3.80476331,23.4723375 L3.80039817,23.4723375 Z" fill="#84A1B6" fill-rule="nonzero"></path>
                            </g>
                        </g>
                    </g>
                </g>
            </g>
        </g>
    </g>
</svg>