<?xml version="1.0" encoding="UTF-8"?>
<svg width="16px" height="16px" viewBox="0 0 16 16" version="1.1" xmlns="http://www.w3.org/2000/svg" xmlns:xlink="http://www.w3.org/1999/xlink">
    <!-- Generator: Sketch 49.3 (51167) - http://www.bohemiancoding.com/sketch -->
    <title>计划icon</title>
    <desc>Created with Sketch.</desc>
    <defs></defs>
    <g id="Page-1" stroke="none" stroke-width="1" fill="none" fill-rule="evenodd">
        <g id="系统首页" transform="translate(-20.000000, -765.000000)" fill="#D3D8DF">
            <g id="侧边导航" transform="translate(0.000000, 61.000000)">
                <g id="加工程序管理" transform="translate(0.000000, 690.000000)">
                    <g id="计划icon" transform="translate(20.000000, 14.000000)">
                        <g id="计划">
                            <path d="M8.61144457,0.853640663 C12.2923537,1.16588076 15.1676671,4.25427131 15.1676671,7.99869388 C15.1676671,11.959062 11.9571669,15.1695622 7.99679871,15.1695622 C4.03643056,15.1695622 0.825930372,11.959062 0.825930372,7.99869388 C0.825930372,6.26785114 1.44057623,4.63289316 2.54161185,3.3437759 C2.67908699,3.17101559 2.65497017,2.92039624 2.4870737,2.7770215 C2.31917723,2.63364676 2.0678731,2.64907111 1.91877071,2.81190237 C0.682089316,4.2568205 0.0036858143,6.0968101 0.00640255462,7.99869388 C0.00640255462,12.4118511 3.58364145,15.98909 7.99679871,15.98909 C12.409956,15.98909 15.9871949,12.4118511 15.9871949,7.99869388 C15.9871949,3.80271149 12.7467819,0.345943184 8.61144457,0.0316542617 L8.61144457,0.0128051285 L7.79191677,0.0128051285 L7.79191677,4.11044418 L8.61144457,4.11044418 L8.61144457,0.853640663 Z" id="Shape" fill-rule="nonzero"></path>
                            <path d="M3.57872428,7.99910364 C3.35622248,7.96468347 3.35540295,7.90936534 3.57872428,7.87494517 L8.26068667,7.15458023 C8.76387674,7.07754461 9.17159184,7.42420487 9.17159184,7.93722929 C9.17159184,8.44656582 8.75936935,8.79609444 8.26068667,8.71946858 L3.57872428,7.99910364 Z" id="Shape" fill-rule="nonzero"></path>
                        </g>
                    </g>
                </g>
            </g>
        </g>
    </g>
</svg>