<?xml version="1.0" encoding="UTF-8"?>
<svg width="18px" height="16px" viewBox="0 0 18 16" version="1.1" xmlns="http://www.w3.org/2000/svg" xmlns:xlink="http://www.w3.org/1999/xlink">
    <!-- Generator: Sketch 49.3 (51167) - http://www.bohemiancoding.com/sketch -->
    <title>异常管理icon</title>
    <desc>Created with Sketch.</desc>
    <defs></defs>
    <g id="Page-1" stroke="none" stroke-width="1" fill="none" fill-rule="evenodd">
        <g id="系统首页" transform="translate(-20.000000, -545.000000)" fill="#D3D8DF">
            <g id="侧边导航" transform="translate(0.000000, 61.000000)">
                <g id="异常管理" transform="translate(0.000000, 470.000000)">
                    <g id="异常管理icon" transform="translate(20.000000, 14.000000)">
                        <g id="异常管理">
                            <path d="M2.86363636,15.1794872 L2.86363636,6.15384615 C2.86363636,2.75517077 5.61097994,5.69345141e-16 9,0 C12.3890201,-5.69345141e-16 15.1363636,2.75517077 15.1363636,6.15384615 L15.1363636,15.1794872 L17.5909091,15.1794872 C17.8168438,15.1794872 18,15.3631652 18,15.5897436 C18,15.8163219 17.8168438,16 17.5909091,16 L0.409090909,16 C0.183156239,16 2.76690171e-17,15.8163219 0,15.5897436 C-2.76690171e-17,15.3631652 0.183156239,15.1794872 0.409090909,15.1794872 L2.86363636,15.1794872 Z M3.68181818,15.1794872 L14.3181818,15.1794872 L14.3181818,6.15384615 C14.3181818,3.20832749 11.9371507,0.820512821 9,0.820512821 C6.06284928,0.820512821 3.68181818,3.20832749 3.68181818,6.15384615 L3.68181818,15.1794872 Z" id="Shape" fill-rule="nonzero"></path>
                            <path d="M6.525,6.4 C6.525,6.65247303 6.32352814,6.85714286 6.075,6.85714286 C5.82647186,6.85714286 5.625,6.65247303 5.625,6.4 C5.625,4.12774274 7.43824676,2.28571429 9.675,2.28571429 C9.92352814,2.28571429 10.125,2.49038411 10.125,2.74285714 C10.125,2.99533017 9.92352814,3.2 9.675,3.2 C7.93530304,3.2 6.525,4.6326888 6.525,6.4 Z" id="Shape" fill-rule="nonzero"></path>
                        </g>
                    </g>
                </g>
            </g>
        </g>
    </g>
</svg>