<?xml version="1.0" encoding="UTF-8"?>
<svg width="16px" height="16px" viewBox="0 0 16 16" version="1.1" xmlns="http://www.w3.org/2000/svg" xmlns:xlink="http://www.w3.org/1999/xlink">
    <!-- Generator: Sketch 49.3 (51167) - http://www.bohemiancoding.com/sketch -->
    <title>系统设置</title>
    <desc>Created with Sketch.</desc>
    <defs></defs>
    <g id="Page-1" stroke="none" stroke-width="1" fill="none" fill-rule="evenodd">
        <g id="系统首页" transform="translate(-20.000000, -149.000000)" fill="#B0B5BC" fill-rule="nonzero">
            <g id="侧边导航" transform="translate(0.000000, 61.000000)">
                <g id="系统设置" transform="translate(0.000000, 74.000000)">
                    <g id="icon" transform="translate(20.000000, 14.000000)">
                        <g id="系统设置">
                            <path d="M14.2369549,8.55494734 C14.2552756,8.37136843 14.266617,8.18694734 14.266617,8 C14.266617,7.81305266 14.2552756,7.62863157 14.2369549,7.44505266 L15.6947591,6.33263157 C16.010573,6.08336843 16.0917075,5.65389477 15.8893074,5.31452632 L14.3346653,2.68884209 C14.1374997,2.35536843 13.7152512,2.19536843 13.3156855,2.34357895 L11.6074985,3.01389473 C11.2943018,2.79663157 10.966274,2.61052632 10.6286498,2.45810527 L10.3695427,0.676210523 C10.3084738,0.290526318 9.95776321,0 9.55470787,0 L6.44455121,0 C6.03626139,0 5.69340255,0.283789477 5.62884394,0.682105273 L5.37060932,2.45810527 C5.03211259,2.61136843 4.70408487,2.79747368 4.39088814,3.01389473 L2.67833907,2.34105264 C2.30930787,2.20294736 1.8626318,2.35536843 1.66546619,2.68884209 L0.110824071,5.31368423 C-0.0915760425,5.65557898 -0.0104415197,6.08505266 0.310606912,6.33684211 L1.76230416,7.44505266 C1.74398346,7.62778945 1.73264207,7.81305266 1.73264207,8 C1.73264207,8.18694734 1.74398346,8.37221055 1.76230416,8.55494734 L0.302755185,9.66736843 C-0.0104415197,9.91747368 -0.0915760425,10.3461052 0.110824071,10.6846316 L1.66633859,13.312 C1.86437662,13.6446316 2.29622164,13.8046316 2.68444598,13.655579 L4.39263303,12.9852631 C4.70670212,13.2025263 5.03472982,13.3886316 5.37148175,13.5402105 L5.63058873,15.3246316 C5.69427498,15.7162105 6.03713375,16 6.44455121,16 L9.55383541,16 C9.95689078,16 10.3067289,15.7094737 10.3704151,15.3178948 L10.6286498,13.5410527 C10.966274,13.3877895 11.2943018,13.2025263 11.6074985,12.9852631 L13.3200476,13.6589473 C13.4160132,13.6951579 13.5163407,13.7128421 13.6192857,13.7128421 C13.9124168,13.7128421 14.1863548,13.559579 14.3346653,13.3111579 L15.8866902,10.6871579 C16.0899627,10.3486316 16.0114454,9.91915789 15.6877797,9.66063157 L14.2369549,8.55494734 Z M13.6437132,12.8766316 L11.7078261,12.1162105 C11.5630054,12.0581052 11.3989915,12.0808421 11.2759811,12.1734737 C10.8938636,12.4597895 10.4855738,12.6913684 10.0615805,12.8614737 C9.91937703,12.9187369 9.81904939,13.0450527 9.79723898,13.192421 L9.51195957,15.1587369 L6.49253396,15.2016842 L6.20114764,13.192421 C6.18020969,13.0450527 6.07900969,12.919579 5.93680612,12.8614737 C5.51630248,12.6930527 5.10714023,12.4606316 4.72240553,12.1734737 C4.64476073,12.1162105 4.55053994,12.0858948 4.45544684,12.0858948 C4.40048473,12.0858948 4.34465019,12.096 4.29143296,12.1170527 L2.42359412,12.8943158 L0.852376139,10.3225263 L2.49425969,9.07115789 C2.61465282,8.97936843 2.67572182,8.83284211 2.65652871,8.68631577 C2.6251218,8.46063157 2.60505628,8.23242102 2.60505628,8 C2.60505628,7.76757898 2.6251218,7.53936843 2.6556563,7.31536843 C2.67572182,7.168 2.61465282,7.02231577 2.49338725,6.93052632 L0.868079594,5.73221055 L2.35554582,3.12336843 L4.28968814,3.88294734 C4.43450887,3.94021055 4.59852278,3.91831577 4.72153316,3.82652632 C5.10452298,3.54021052 5.51455769,3.30778948 5.93855098,3.136 C6.08075448,3.07873684 6.18020969,2.95326316 6.20202007,2.80589473 L6.44455121,0.842105273 L9.5067251,0.799157909 L9.79811141,2.80757895 C9.81904939,2.95494736 9.92024939,3.08042105 10.062453,3.1376842 C10.4847014,3.30778948 10.8938636,3.53936843 11.2777259,3.82652632 C11.4016087,3.91831577 11.5656226,3.94021055 11.7095709,3.88378945 L13.5774098,3.10736843 L15.1495001,5.67747368 L13.5067442,6.93052632 C13.3863511,7.02231577 13.3244096,7.168 13.3436028,7.31452632 C13.3732648,7.54021055 13.3950752,7.76842102 13.3950752,8.00084211 C13.3950752,8.23326314 13.3741372,8.46147368 13.3436028,8.68715789 C13.3244096,8.83368423 13.3863511,8.97936843 13.5067442,9.07115789 L15.1311795,10.2677895 L13.6437132,12.8766316 Z M8.00093819,4.82526314 C6.20202007,4.82526314 4.73898146,6.24926314 4.73898146,8 C4.73898146,9.74989477 6.20202007,11.1747369 8.00093819,11.1747369 C9.79985623,11.1747369 11.2620225,9.75073686 11.2620225,8 C11.2620225,6.24926314 9.79898387,4.82526314 8.00093819,4.82526314 Z M8.00093819,10.3326316 C6.68359273,10.3326316 5.61139564,9.28673686 5.61139564,8 C5.61139564,6.71326314 6.68359273,5.66736843 8.00093819,5.66736843 C9.31828357,5.66736843 10.3896082,6.71410523 10.3896082,8 C10.3896082,9.28589477 9.31741121,10.3326316 8.00093819,10.3326316 Z" id="Shape"></path>
                            <path d="M14.1892791,7.99999997 C14.1892791,7.81536061 14.1780777,7.63321637 14.159983,7.4519038 L15.5998002,6.3532164 C15.9117175,6.1070305 15.991851,5.68285896 15.7919481,5.34768029 L14.2564878,2.75441194 C14.0617549,2.42505523 13.6447163,2.26703053 13.2500805,2.41341129 L11.5629697,3.07545159 C11.2536374,2.8608707 10.929657,2.67706302 10.5961984,2.52652372 L10.3402884,0.76662768 C10.2799728,0.385705004 9.93358952,0.0987654269 9.5355072,0.0987654269 L6.46372473,0.0987654269 C6.0604725,0.0987654269 5.72184407,0.379051326 5.65808196,0.772449637 L5.40303352,2.52652372 C5.06871332,2.67789474 4.74473296,2.8617024 4.43540059,3.07545159 L2.7439815,2.41091617 C2.37950355,2.27451591 1.93833871,2.42505523 1.7436058,2.75441194 L0.208145415,5.34684859 C0.00824261979,5.68452245 0.0883760743,6.10869399 0.405463279,6.35737492 L1.83924896,7.4519038 C1.8211543,7.63238465 1.80995285,7.81536061 1.80995285,7.99999997 C1.80995285,8.18463939 1.8211543,8.36761535 1.83924896,8.5480962 L0.397708438,9.64678362 C0.0883760743,9.89380113 0.00824261979,10.317141 0.208145415,10.6514879 L1.74446746,13.2464198 C1.940062,13.5749448 2.3665788,13.7329695 2.75001305,13.585757 L4.43712387,12.9237167 C4.74731789,13.1382976 5.07129825,13.3221052 5.40389521,13.4718129 L5.65980523,15.234204 C5.72270575,15.6209486 6.06133418,15.9012346 6.46372473,15.9012346 L9.53464552,15.9012346 C9.93272786,15.9012346 10.2782495,15.614295 10.34115,15.2275503 L10.5961984,13.4726446 C10.929657,13.3212735 11.2536374,13.1382976 11.5629697,12.9237167 L13.2543888,13.5890839 C13.3491703,13.6248473 13.4482601,13.6423132 13.5499348,13.6423132 C13.8394492,13.6423132 14.1100073,13.4909422 14.2564878,13.2455881 L15.7893632,10.6539831 C15.9901277,10.3196362 15.9125792,9.8954646 15.592907,9.64012992 L14.159983,8.5480962 C14.1780777,8.36678366 14.1892791,8.18463939 14.1892791,7.99999997 Z M14.2198496,8.46954267 L15.6545467,9.56295988 C16.0106126,9.84736359 16.1017401,10.3256168 15.8743727,10.7042635 L14.3412907,13.296216 C14.177065,13.5712931 13.8743822,13.7410786 13.5499348,13.7410786 C13.4356567,13.7410786 13.3248274,13.7212246 13.218233,13.6809935 L11.6192645,13.0048681 C11.3079305,13.2208376 10.9791182,13.4072863 10.6939377,13.4868492 L10.4386352,15.2434052 C10.3680052,15.6776753 9.98145795,16 9.53464552,16 L6.46372473,16 C6.01313339,16 5.63303484,15.6848503 5.56206414,15.2483964 L5.363356,13.5618751 C5.02565316,13.4098692 4.69641514,13.2231791 4.47320262,13.0156566 L2.78541335,13.6779603 C2.36382885,13.8398198 1.88349441,13.6729974 1.65947928,13.296736 L0.123375165,10.7021705 C-0.101980062,10.3252532 -0.0117232893,9.84734307 0.337838801,9.56823241 L1.74097546,8.55794869 C1.7213775,8.36247357 1.71118669,8.17850635 1.71118669,7.99999997 C1.71118669,7.82149358 1.7213775,7.63752643 1.77931866,7.53040877 L0.34451271,6.43509041 C-0.0102883575,6.15683174 -0.102834676,5.67827559 0.123166097,5.29651739 L1.658588,2.70414573 C1.87764457,2.33364981 2.36917539,2.16519568 2.78009814,2.3189911 L4.37925332,2.99419798 C4.6934723,2.77707216 5.02260996,2.59035152 5.30529521,2.51231242 L5.56058807,0.75664805 C5.63198,0.316175338 6.01122705,0 6.46372473,0 L9.5355072,0 C9.9817955,0 10.3698619,0.321871091 10.4380266,0.752415581 L10.6368372,2.43650637 C10.9762781,2.58974641 11.3054585,2.77661592 11.526891,2.98351163 L13.2157321,2.320811 C13.6468258,2.16090703 14.1179732,2.3260798 14.3414742,2.7040927 L15.8767738,5.29709048 C16.1024452,5.67547561 16.0112573,6.15428942 15.6597151,6.43173305 L14.258261,7.44209603 C14.2779028,7.63891123 14.2880452,7.82179795 14.2880452,7.99999997 C14.2880452,8.17820199 14.2779028,8.36108879 14.258261,8.55790397 L14.2198496,8.46954267 Z M13.574061,12.8164262 L15.0431742,10.2397921 L13.4387819,9.05793371 C13.3198742,8.96727745 13.258697,8.82339182 13.2776533,8.67867443 C13.3078111,8.45577645 13.3284907,8.23038335 13.3284907,8.00083166 C13.3284907,7.77128007 13.3069495,7.5458869 13.2776533,7.32298892 C13.258697,7.17827158 13.3198742,7.03438597 13.4387819,6.94372968 L15.0612689,5.70614686 L13.5085756,3.16777129 L11.6637828,3.9346069 C11.5216105,3.99033137 11.3596204,3.96870694 11.237266,3.87805066 C10.85814,3.59443794 10.4540261,3.365718 10.0369875,3.19771279 C9.89653854,3.1411566 9.79658714,3.01723197 9.77590757,2.87168292 L9.48811643,0.888057167 L6.46372473,0.930474329 L6.22418605,2.8700195 C6.2026448,3.01556855 6.10441673,3.13949318 5.96396771,3.19604937 C5.54520582,3.365718 5.14023025,3.59526964 4.76196589,3.87805066 C4.64047323,3.96870694 4.47848305,3.99033137 4.33544916,3.9337752 L2.425171,3.18357374 L0.956057665,5.76020791 L2.56131171,6.94372968 C2.68108105,7.03438597 2.74139655,7.17827158 2.72157862,7.32382068 C2.69142085,7.5450552 2.67160291,7.77044835 2.67160291,7.99999997 C2.67160291,8.22955165 2.69142085,8.45494473 2.72244025,8.67784271 C2.74139655,8.82256012 2.68108105,8.96727745 2.56217335,9.05793371 L0.94054796,10.2938531 L2.49237971,12.8338921 L4.33717243,12.0662248 C4.38973309,12.0454321 4.44487868,12.0354516 4.49916262,12.0354516 C4.59308248,12.0354516 4.68614073,12.0653931 4.76282757,12.1219493 C5.14281528,12.4055621 5.54692909,12.6351137 5.96224443,12.8014555 C6.10269339,12.8588434 6.2026448,12.982768 6.22332437,13.1283171 L6.5111155,15.1127745 L9.49328632,15.0703574 L9.77504589,13.1283171 C9.79658714,12.982768 9.89567686,12.8580117 10.0361259,12.8014555 C10.4548878,12.6334503 10.85814,12.4047304 11.2355428,12.1219493 C11.3570354,12.0304614 11.5190256,12.0080052 11.6620595,12.0653931 L13.574061,12.8164262 Z M13.5379513,12.9083541 L11.6252821,12.1570558 C11.5150495,12.1128285 11.3894465,12.1296918 11.2947664,12.2009887 C10.9100053,12.4892832 10.4991687,12.7221026 10.0730186,12.8930718 C9.9651992,12.9364888 9.88916895,13.0318233 9.87278873,13.1424978 L9.59102916,15.0845381 L9.49469098,15.1691128 L6.51252023,15.2115299 L6.41337187,15.1269493 L6.1255403,13.1422101 C6.10994459,13.032443 6.03382037,12.9373939 5.92552232,12.8931404 C5.50346248,12.7240973 5.09176357,12.490701 4.70420568,12.201436 C4.64508859,12.1578374 4.57272509,12.134217 4.49916262,12.134217 C4.45623957,12.134217 4.41352037,12.1422348 4.37511768,12.1574103 L2.53032496,12.9250776 L2.40809803,12.8853831 L0.856266301,10.3453441 L0.880679006,10.2153014 L2.50229146,8.97939184 C2.59279294,8.91039272 2.63891725,8.80065403 2.6246168,8.69145607 C2.5905075,8.44635491 2.57283673,8.22045724 2.57283673,7.99999997 C2.57283673,7.78093809 2.59025069,7.5559901 2.62371544,7.31049585 C2.6387278,7.20024044 2.59297921,7.09156822 2.50270087,7.02322453 L0.897446824,5.83970275 L0.870257892,5.71128843 L2.33937123,3.13465422 L2.46127425,3.09164342 L4.37176605,3.84192904 C4.48269346,3.88579017 4.60862741,3.86923836 4.7028288,3.79894661 C5.08734298,3.51149331 5.49966255,3.27760629 5.92707498,3.10443303 C6.03481055,3.0610499 6.11004975,2.96660283 6.12616459,2.85791377 L6.36570334,0.918368624 L6.46233971,0.831718607 L9.48673134,0.789301467 L9.58585927,0.873876522 L9.8736917,2.85778995 C9.88929104,2.96758268 9.9653715,3.06240196 10.0738937,3.10610188 C10.4997261,3.27764966 10.9112298,3.51081 11.2960644,3.79869445 C11.3911712,3.86916216 11.517342,3.88592342 11.6258726,3.84340685 L13.4706654,3.07657124 L13.5928295,3.11623494 L15.1455228,5.65461051 L15.1211687,5.78467507 L13.4986638,7.02227158 C13.4076457,7.09166452 13.3612607,7.2008211 13.3755773,7.31011867 C13.4098473,7.57086047 13.4272569,7.78811929 13.4272569,8.00083166 C13.4272569,8.21736685 13.4096537,8.43968973 13.375583,8.69150189 C13.3612607,8.80084232 13.4076457,8.9099989 13.4973597,8.97841453 L15.1017521,10.1602729 L15.128974,10.2887116 L13.6598607,12.8653458 L13.5379513,12.9083541 Z M4.77919891,7.99999997 C4.77919891,9.72829109 6.22418605,11.1355425 8.00090843,11.1355425 C9.77763084,11.1355425 11.2217563,9.72912278 11.2217563,7.99999997 C11.2217563,6.27087722 9.77676916,4.86445746 8.00090843,4.86445746 C6.22418605,4.86445746 4.77919891,6.27087722 4.77919891,7.99999997 Z M11.3205225,7.99999997 C11.3205225,9.78445596 9.83140377,11.234308 8.00090843,11.234308 C6.170548,11.234308 4.68043273,9.78375583 4.68043273,7.99999997 C4.68043273,6.21569538 6.17025702,4.76569201 8.00090843,4.76569201 C9.83083557,4.76569201 11.3205225,6.21582942 11.3205225,7.99999997 Z M10.3601062,7.99999997 C10.3601062,6.72998052 9.302,5.69616636 8.00090843,5.69616636 C6.69981686,5.69616636 5.64084896,6.7291488 5.64084896,7.99999997 C5.64084896,9.2708512 6.69981686,10.3038337 8.00090843,10.3038337 C9.30113841,10.3038337 10.3601062,9.27001951 10.3601062,7.99999997 Z M5.54208284,7.99999997 C5.54208284,6.67431823 6.64553286,5.59740091 8.00090843,5.59740091 C9.35584218,5.59740091 10.4588724,6.67471984 10.4588724,7.99999997 C10.4588724,9.32499546 9.3552725,10.4025991 8.00090843,10.4025991 C6.64553286,10.4025991 5.54208284,9.32568177 5.54208284,7.99999997 Z" id="Shape"></path>
                        </g>
                    </g>
                </g>
            </g>
        </g>
    </g>
</svg>