<?xml version="1.0" encoding="UTF-8"?>
<svg width="17px" height="15px" viewBox="0 0 17 15" version="1.1" xmlns="http://www.w3.org/2000/svg" xmlns:xlink="http://www.w3.org/1999/xlink">
    <!-- Generator: Sketch 49.3 (51167) - http://www.bohemiancoding.com/sketch -->
    <title>人力资源icon</title>
    <desc>Created with Sketch.</desc>
    <defs></defs>
    <g id="Page-1" stroke="none" stroke-width="1" fill="none" fill-rule="evenodd">
        <g id="系统首页" transform="translate(-20.000000, -634.000000)" fill="#D3D8DF">
            <g id="侧边导航" transform="translate(0.000000, 61.000000)">
                <g id="人力资源管理" transform="translate(0.000000, 558.000000)">
                    <g id="icon" transform="translate(20.000000, 15.000000)">
                        <g id="人力资源icon">
                            <g id="人力资源（默认状态）">
                                <path d="M6.79492946,7.78195489 C4.60591013,7.78195489 2.83135934,6.04184704 2.83135934,3.89531522 C2.83135934,1.7487834 4.60591013,0.0086755415 6.79492946,0.0086755415 C8.9839488,0.0086755415 10.7584996,1.7487834 10.7584996,3.89531522 C10.7584996,6.04184704 8.9839488,7.78195489 6.79492946,7.78195489 Z M6.79492946,6.6714864 C7.80644163,6.67155975 8.74114942,6.14244055 9.24692709,5.28346007 C9.75270477,4.42447959 9.75270477,3.36615083 9.24692709,2.50717035 C8.74114942,1.64818987 7.80644163,1.11907067 6.79492946,1.11914402 C5.23142599,1.1192574 3.96401731,2.36215837 3.96401731,3.89531521 C3.96401731,5.42847205 5.23142599,6.67137302 6.79492946,6.6714864 Z" id="Shape" fill-rule="nonzero"></path>
                                <path d="M11.3247239,7.19562753 L11.3247239,6.23174089 C12.285374,6.41395445 13.263649,6.01264467 13.8058185,5.21394167 C14.347988,4.41523867 14.347988,3.37539175 13.8058185,2.57668875 C13.263649,1.77798575 12.285374,1.37667597 11.3247239,1.55888953 L11.3247239,0.59500289 C12.6366736,0.419603769 13.9330139,1.00762046 14.6461585,2.10159727 C15.3593032,3.19557408 15.3593032,4.59616681 14.6461585,5.69014362 C13.9330139,6.78412043 12.6366736,7.37213712 11.3247239,7.196738 L11.3247239,7.19562753 Z M0.0942310464,15 C-0.353161962,12.389907 0.817340799,9.76762499 3.07635138,8.31914394 C5.33536197,6.87066289 8.25449696,6.87066289 10.5135075,8.31914394 C12.7725181,9.76762499 13.9430209,12.389907 13.4956279,15 L12.3439276,15 C12.8007544,12.793938 11.8540141,10.5357162 9.94695462,9.28259573 C8.0398951,8.02947528 5.54996382,8.02947528 3.6429043,9.28259573 C1.73584478,10.5357162 0.789104547,12.793938 1.24593129,15 L0.0942310464,15 Z" id="Shape" fill-rule="nonzero"></path>
                                <path d="M11.3247239,6.11625217 C15.0250245,6.73016125 17.517687,10.1686593 16.8929737,13.7973626 L15.7412735,13.7973626 C16.3660431,10.7923444 14.3889721,7.85944337 11.3247239,7.24559862 L11.3247239,6.11625217 Z M4.6432771,13.7973626 L3.49157688,13.7973626 L4.6432771,13.7973626 Z" id="Shape" fill-rule="nonzero"></path>
                            </g>
                        </g>
                    </g>
                </g>
            </g>
        </g>
    </g>
</svg>