<?xml version="1.0" encoding="UTF-8"?>
<svg width="14px" height="17px" viewBox="0 0 14 17" version="1.1" xmlns="http://www.w3.org/2000/svg" xmlns:xlink="http://www.w3.org/1999/xlink">
    <!-- Generator: Sketch 49.3 (51167) - http://www.bohemiancoding.com/sketch -->
    <title>资源管理icon</title>
    <desc>Created with Sketch.</desc>
    <defs></defs>
    <g id="Page-1" stroke="none" stroke-width="1" fill="none" fill-rule="evenodd">
        <g id="系统首页" transform="translate(-20.000000, -809.000000)" fill="#D3D8DF">
            <g id="侧边导航" transform="translate(0.000000, 61.000000)">
                <g id="数据采集" transform="translate(0.000000, 734.000000)">
                    <g id="资源管理icon" transform="translate(20.000000, 14.000000)">
                        <g id="资源管理">
                            <path d="M8.6128,0.730841121 L13.272,5.43082035 L13.272,14.8307788 C13.272,15.629464 12.6301554,16.2769263 11.8384,16.2769263 L2.1616,16.2769263 C1.36984458,16.2769263 0.728,15.629464 0.728,14.8307788 L0.728,2.17698858 C0.728,1.37830339 1.36984458,0.730841121 2.1616,0.730841121 L8.6128,0.730841121 Z M8.910272,0.00776739356 L2.1616,0.00776739356 C0.973966874,0.00776739356 0.0112,0.978960799 0.0112,2.17698858 L0.0112,14.8307788 C0.0112,16.0288066 0.973966874,17 2.1616,17 L11.8384,17 C13.0260331,17 13.9888,16.0288066 13.9888,14.8307788 L13.9888,5.13074476 L8.910272,0.00776739356 Z" id="Shape" fill-rule="nonzero"></path>
                            <path d="M13.8096,5.79235722 L10.7632,5.79235722 C9.37762802,5.79235722 8.2544,4.65929824 8.2544,3.26159917 L8.2544,0.188535826 L8.9712,0.188535826 L8.9712,3.26159917 C8.9712,4.25995565 9.77350573,5.06928349 10.7632,5.06928349 L13.8096,5.06928349 L13.8096,5.79235722 Z M6.3728,5.97312565 L2.8784,5.97312565 C2.72994586,5.97312565 2.6096,5.85172647 2.6096,5.701973 C2.6096,5.55221953 2.72994586,5.43082035 2.8784,5.43082035 L6.3728,5.43082035 C6.52125414,5.43082035 6.6416,5.55221953 6.6416,5.701973 C6.6416,5.85172647 6.52125414,5.97312565 6.3728,5.97312565 Z M10.7632,9.58849429 L2.8784,9.58849429 C2.72994586,9.58849429 2.6096,9.46709511 2.6096,9.31734164 C2.6096,9.16758817 2.72994586,9.04618899 2.8784,9.04618899 L10.7632,9.04618899 C10.9116541,9.04618899 11.032,9.16758817 11.032,9.31734164 C11.032,9.46709511 10.9116541,9.58849429 10.7632,9.58849429 Z M11.1216,13.2038629 L2.8784,13.2038629 C2.72994586,13.2038629 2.6096,13.0824638 2.6096,12.9327103 C2.6096,12.7829568 2.72994586,12.6615576 2.8784,12.6615576 L11.1216,12.6615576 C11.2700541,12.6615576 11.3904,12.7829568 11.3904,12.9327103 C11.3904,13.0824638 11.2700541,13.2038629 11.1216,13.2038629 Z" id="Shape" fill-rule="nonzero"></path>
                        </g>
                    </g>
                </g>
            </g>
        </g>
    </g>
</svg>