<?xml version="1.0" encoding="UTF-8"?>
<svg width="15px" height="14px" viewBox="0 0 15 14" version="1.1" xmlns="http://www.w3.org/2000/svg" xmlns:xlink="http://www.w3.org/1999/xlink">
    <!-- Generator: Sketch 49.3 (51167) - http://www.bohemiancoding.com/sketch -->
    <title>分类icon</title>
    <desc>Created with Sketch.</desc>
    <defs></defs>
    <g id="Page-1" stroke="none" stroke-width="1" fill="none" fill-rule="evenodd">
        <g id="系统首页" transform="translate(-20.000000, -194.000000)" fill="#B0B5BC">
            <g id="侧边导航" transform="translate(0.000000, 61.000000)">
                <g id="行业特性" transform="translate(0.000000, 118.000000)">
                    <g id="icon" transform="translate(20.000000, 15.000000)">
                        <g id="分类icon">
                            <g id="分类">
                                <path d="M5.18829055,14 L1.89279647,14 C0.849135761,14 -1.95269182e-08,13.2105389 0,12.2402235 L0,9.17634524 C0,8.20602981 0.84913578,7.41656869 1.89279647,7.41656869 L5.18829055,7.41656869 C6.23195126,7.41656869 7.08108704,8.20602981 7.08108702,9.17634524 L7.08108702,12.240242 C7.08108702,13.2105575 6.23195124,14 5.18829055,14 Z M1.89279647,8.27645803 C1.35911678,8.27645803 0.924887588,8.68017092 0.924887608,9.17634524 L0.924887608,12.240242 C0.924887608,12.7364164 1.3591168,13.1401293 1.89279647,13.1401293 L5.18829055,13.1401293 C5.72197024,13.1401293 6.15619943,12.7364164 6.15619943,12.240242 L6.15619943,9.17634524 C6.15619943,8.68017092 5.72197024,8.27645803 5.18829055,8.27645803 L1.89279647,8.27645803 Z M13.1072035,14 L9.81172945,14 C8.76806874,14 7.91893296,13.2105389 7.91893296,12.2402235 L7.91893296,9.17634524 C7.91893296,8.20602981 8.76806874,7.41656869 9.81172945,7.41656869 L13.1072035,7.41656869 C14.1508642,7.41656869 15,8.20602981 15,9.17634524 L15,12.240242 C15,13.2105575 14.1508642,14 13.1072035,14 Z M9.81172945,8.27645803 C9.27804976,8.27645803 8.84382057,8.68017092 8.84382057,9.17634524 L8.84382057,12.240242 C8.84382057,12.7364164 9.27804976,13.1401293 9.81172945,13.1401293 L13.1072035,13.1401293 C13.6408832,13.1401293 14.0751124,12.7364164 14.0751124,12.240242 L14.0751124,9.17634524 C14.0751124,8.68017092 13.6408832,8.27645803 13.1072035,8.27645803 L9.81172945,8.27645803 Z M5.18829055,6.5834499 L1.89279647,6.5834499 C0.849135761,6.5834499 -1.95269182e-08,5.79398878 0,4.82367335 L0,1.75977654 C0,0.789461115 0.84913578,0 1.89279647,0 L5.18829055,0 C6.23195126,0 7.08108704,0.789461115 7.08108702,1.75977654 L7.08108702,4.82367335 C7.08108702,5.79398878 6.23195124,6.5834499 5.18829055,6.5834499 Z M1.89279647,0.859889335 C1.35911678,0.859889335 0.924887588,1.26360223 0.924887608,1.75977654 L0.924887608,4.82367335 C0.924887608,5.31984767 1.3591168,5.72356056 1.89279647,5.72356056 L5.18829055,5.72356056 C5.72197024,5.72356056 6.15619943,5.31984767 6.15619943,4.82367335 L6.15619943,1.75977654 C6.15619943,1.26360223 5.72197024,0.859889335 5.18829055,0.859889335 L1.89279647,0.859889335 Z M13.1072035,6.5834499 L9.81172945,6.5834499 C8.76806874,6.5834499 7.91893296,5.79398878 7.91893296,4.82367335 L7.91893296,1.75977654 C7.91893296,0.789461115 8.76806874,0 9.81172945,0 L13.1072035,0 C14.1508642,0 15,0.789461115 15,1.75977654 L15,4.82367335 C15,5.79398878 14.1508642,6.5834499 13.1072035,6.5834499 Z M9.81172945,0.859889335 C9.27804976,0.859889335 8.84382057,1.26360223 8.84382057,1.75977654 L8.84382057,4.82367335 C8.84382057,5.31984767 9.27804976,5.72356056 9.81172945,5.72356056 L13.1072035,5.72356056 C13.6408832,5.72356056 14.0751124,5.31984767 14.0751124,4.82367335 L14.0751124,1.75977654 C14.0751124,1.26360223 13.6408832,0.859889335 13.1072035,0.859889335 L9.81172945,0.859889335 Z" id="Shape" fill-rule="nonzero"></path>
                                <path d="M1.86433129,3.20689655 C1.73695761,3.20689655 1.63366337,3.1101965 1.63366337,2.99091255 L1.63366337,2.24258364 C1.68861942,1.63293092 2.21210726,1.39260861 2.48128628,1.3480941 C2.49451931,1.3459013 2.50793347,1.3448083 2.5213721,1.34482784 L4.26190634,1.34482784 C4.38928001,1.34482784 4.49257426,1.44152789 4.49257426,1.56081183 C4.49257426,1.68007711 4.38929994,1.77679582 4.26190634,1.77679582 L2.54549138,1.77679582 C2.46057561,1.79598279 2.12776954,1.89426931 2.0942019,2.26106136 L2.09499923,2.99093122 C2.09499923,3.11017782 1.99172491,3.20689655 1.86433129,3.20689655 Z" id="Shape" fill-rule="nonzero"></path>
                                <path d="M1.59653465,3.67241379 C1.59653465,3.81524606 1.72120784,3.93103448 1.875,3.93103448 C2.02879216,3.93103448 2.15346535,3.81524606 2.15346535,3.67241379 C2.15346535,3.52958153 2.02879216,3.4137931 1.875,3.4137931 C1.72120784,3.4137931 1.59653465,3.52958153 1.59653465,3.67241379 Z" id="Shape" fill-rule="nonzero"></path>
                            </g>
                        </g>
                    </g>
                </g>
            </g>
        </g>
    </g>
</svg>