<?xml version="1.0" encoding="UTF-8"?>
<svg width="16px" height="19px" viewBox="0 0 16 19" version="1.1" xmlns="http://www.w3.org/2000/svg" xmlns:xlink="http://www.w3.org/1999/xlink">
    <!-- Generator: Sketch 49.3 (51167) - http://www.bohemiancoding.com/sketch -->
    <title>订单跟踪icon</title>
    <desc>Created with Sketch.</desc>
    <defs></defs>
    <g id="Page-1" stroke="none" stroke-width="1" fill="none" fill-rule="evenodd">
        <g id="系统首页" transform="translate(-20.000000, -368.000000)" fill="#D3D8DF">
            <g id="侧边导航" transform="translate(0.000000, 61.000000)">
                <g id="产品跟踪与族谱" transform="translate(0.000000, 294.000000)">
                    <g id="icon" transform="translate(20.000000, 13.000000)">
                        <g id="订单跟踪icon">
                            <g id="订单跟踪">
                                <path d="M10.1795731,1.27537306 C10.1064244,1.26852669 10.0330257,1.26488368 9.95957597,1.26445388 L1.39801932,1.26445388 C0.63478351,1.26445388 0.0172475854,1.89280327 0.0172475854,2.67104327 L0.0172475854,17.575729 C0.0172475854,18.3529763 0.63478351,18.9823184 1.39801932,18.9823184 L13.3984792,18.9823184 C14.161715,18.9823184 14.7792509,18.3529763 14.7792509,17.575729 L14.7792509,6.40540408 C14.5167981,6.78757551 14.2340824,7.16279837 13.9571562,7.50526367 L13.9571562,17.575729 L13.9581211,17.575729 C13.9581211,17.8864294 13.7072471,18.1385633 13.3975143,18.1385633 L1.39801932,18.1385633 C1.09233968,18.1418751 0.841648704,17.890188 0.837412485,17.575729 L0.837412485,2.67104327 C0.837412485,2.36034286 1.08925135,2.10820898 1.39801932,2.10820898 L9.7598417,2.10820898 C9.86019128,1.8074351 10.0020316,1.52750694 10.1795731,1.27537306 Z" id="Shape" fill-rule="nonzero"></path>
                                <path d="M2.88878963,13.4998955 L11.0904386,13.4998955 L11.0904386,14.3446433 L2.88878963,14.3446433 L2.88878963,13.4998955 Z M2.88878963,10.5477453 L11.9096386,10.5477453 L11.9096386,11.3915004 L2.88878963,11.3915004 L2.88878963,10.5477453 Z M2.88878963,7.59460245 L8.62994393,7.59460245 L8.62994393,8.43835755 L2.88878963,8.43835755 L2.88878963,7.59460245 Z" id="Shape" fill-rule="nonzero"></path>
                                <path d="M12.9990106,4.24836898 C12.3776151,4.24836898 11.8527095,3.71829224 11.8527095,3.08994286 C11.8527095,2.44471837 12.3776151,1.89975184 12.9990106,1.89975184 C13.6261955,1.89975184 14.1366276,2.43479184 14.1366276,3.08994286 C14.1366276,3.71829224 13.6146167,4.24836898 12.9990106,4.24836898 Z M12.9990106,2.35637224 C12.6099107,2.36496268 12.298121,2.69056025 12.2955986,3.09093551 C12.2955986,3.4592098 12.6313837,3.79373388 12.9990106,3.79373388 C13.3774233,3.79218942 13.6854389,3.48016237 13.6927736,3.09093551 C13.6981418,2.69109677 13.3876639,2.36235965 12.9990106,2.35637224 Z" id="Shape" fill-rule="nonzero"></path>
                                <path d="M15.9863406,3.08994286 C15.9836818,1.3935392 14.6470217,0.0193211105 12.9980457,0.0176816327 C11.3635053,0.0176816327 10.0338733,1.39647673 10.0338733,3.08994286 C10.0338733,4.55609143 12.0128829,6.84415673 12.9912914,8.00556082 C13.9581211,6.95136327 15.9863406,4.49653224 15.9863406,3.08994286 Z M13.0048,7.32460082 C12.2077927,6.37860245 10.4786921,4.27417796 10.4786921,3.08994286 C10.4786921,1.64761796 11.6095548,0.474302041 12.9990106,0.474302041 C14.403293,0.474848746 15.5418547,1.64527022 15.5434516,3.08994286 C15.5434516,4.23844245 13.7805795,6.43716898 13.0048,7.32460082 Z" id="Shape" fill-rule="nonzero"></path>
                            </g>
                        </g>
                    </g>
                </g>
            </g>
        </g>
    </g>
</svg>