<?xml version="1.0" encoding="UTF-8"?>
<svg width="17px" height="16px" viewBox="0 0 17 16" version="1.1" xmlns="http://www.w3.org/2000/svg" xmlns:xlink="http://www.w3.org/1999/xlink">
    <!-- Generator: Sketch 49.3 (51167) - http://www.bohemiancoding.com/sketch -->
    <title>人员排班</title>
    <desc>Created with Sketch.</desc>
    <defs></defs>
    <g id="Page-1" stroke="none" stroke-width="1" fill="none" fill-rule="evenodd">
        <g id="扫描箱码2" transform="translate(-261.000000, -839.000000)" fill="#D3D8DF">
            <g id="Group-2" transform="translate(253.000000, 831.000000)">
                <g id="Group-3">
                    <g id="人员排班" transform="translate(8.000000, 8.000000)">
                        <g id="Shape">
                            <path d="M4.86070381,2.94002006 C5.11163245,2.94002006 5.31603128,2.74262788 5.31603128,2.5003009 L5.31603128,0.449348044 C5.31603128,0.207021063 5.11163245,0.00962888666 4.86070381,0.00962888666 C4.60977517,0.00962888666 4.40537634,0.207021063 4.40537634,0.449348044 L4.40537634,2.5003009 C4.40703812,2.74262788 4.61143695,2.94002006 4.86070381,2.94002006 Z M12.140958,2.94002006 C12.3918866,2.94002006 12.5962854,2.74262788 12.5962854,2.5003009 L12.5962854,0.449348044 C12.5962854,0.207021063 12.3918866,0.00962888666 12.140958,0.00962888666 C11.8900293,0.00962888666 11.6872923,0.208625878 11.6872923,0.449348044 L11.6872923,2.5003009 C11.6872923,2.74262788 11.8916911,2.94002006 12.140958,2.94002006 Z" fill-rule="nonzero"></path>
                            <path d="M16.0860215,0.765496489 L13.9622678,0.765496489 C13.7096774,0.765496489 13.5069404,0.961283852 13.5069404,1.20521565 C13.5069404,1.44914744 13.7096774,1.6449348 13.9622678,1.6449348 L15.4794721,1.6449348 C15.8134897,1.6449348 16.0860215,1.90812437 16.0860215,2.23069208 L16.0860215,3.82908726 L0.917302053,3.82908726 L0.917302053,2.23069208 C0.917302053,1.90812437 1.18983382,1.6449348 1.52385142,1.6449348 L3.00948192,1.6449348 C3.26207234,1.6449348 3.46480938,1.44914744 3.46480938,1.20521565 C3.46480938,0.961283852 3.26207234,0.765496489 3.00948192,0.765496489 L0.915640274,0.765496489 C0.41544477,0.765496489 0.00498533724,1.16028084 0.00498533724,1.6449348 L0.00498533724,15.1205617 C0.00498533724,15.6036108 0.413782991,16 0.915640274,16 L16.0860215,16 C16.586217,16 16.9966764,15.6052156 16.9966764,15.1205617 L16.9966764,1.64332999 C16.9950147,1.16028084 16.586217,0.765496489 16.0860215,0.765496489 Z M16.0860215,14.5331996 C16.0860215,14.8557673 15.8134897,15.1189569 15.4794721,15.1189569 L1.52385142,15.1189569 C1.18983382,15.1189569 0.917302053,14.8557673 0.917302053,14.5331996 L0.917302053,4.70692076 L16.0860215,4.70692076 L16.0860215,14.5331996 Z" fill-rule="nonzero"></path>
                            <path d="M12.6261975,11.5241725 L11.8202346,11.5241725 L11.8202346,10.7458375 C11.8202346,10.603009 11.7005865,10.4858576 11.5510264,10.4858576 C11.4031281,10.4858576 11.2818182,10.6014042 11.2818182,10.7458375 L11.2818182,11.5241725 L10.4758553,11.5241725 C10.327957,11.5241725 10.2066471,11.6397192 10.2066471,11.7841525 C10.2066471,11.9269809 10.3262952,12.0441324 10.4758553,12.0441324 L11.2818182,12.0441324 L11.2818182,12.8224674 C11.2818182,12.9652959 11.4014663,13.0824473 11.5510264,13.0824473 C11.6989247,13.0824473 11.8202346,12.9669007 11.8202346,12.8224674 L11.8202346,12.0441324 L12.6261975,12.0441324 C12.7740958,12.0441324 12.8954057,11.9285858 12.8954057,11.7841525 C12.8954057,11.641324 12.7757576,11.5241725 12.6261975,11.5241725 Z" fill-rule="nonzero"></path>
                            <path d="M11.2818182,13.6024072 L5.68660802,13.6024072 C5.62678397,13.6024072 5.59188661,13.5671013 5.57859238,13.552658 C5.56197458,13.5334002 5.54369501,13.4996991 5.55200391,13.4579739 C5.814565,12.1115346 7.04926686,11.1358074 8.48504399,11.1358074 C8.49335288,11.1358074 8.50332356,11.1342026 8.51163245,11.1325978 C9.96901271,11.1053159 11.1472141,9.95305918 11.1472141,8.53761284 C11.1472141,7.10611836 9.94076246,5.94102307 8.45845552,5.94102307 C6.97614858,5.94102307 5.76969697,7.10611836 5.76969697,8.53761284 C5.76969697,9.42347041 6.23167155,10.205015 6.93460411,10.6752257 C5.8311828,11.1502508 4.99364614,12.116349 4.75933529,13.3119358 C4.70782014,13.5735206 4.78093842,13.8431294 4.957087,14.0485456 C5.13822092,14.2587763 5.40410557,14.3807422 5.68660802,14.3807422 L11.2818182,14.3807422 C11.5044966,14.3807422 11.6856305,14.2058175 11.6856305,13.9907723 C11.6856305,13.7757272 11.5044966,13.6024072 11.2818182,13.6024072 Z M8.45845552,6.71935807 C9.49706745,6.71935807 10.3412512,7.53460381 10.3412512,8.53761284 C10.3412512,9.54062187 9.49540567,10.3558676 8.45845552,10.3558676 C7.42150538,10.3558676 6.57565982,9.54062187 6.57565982,8.53761284 C6.57565982,7.53460381 7.4198436,6.71935807 8.45845552,6.71935807 Z" fill-rule="nonzero"></path>
                        </g>
                    </g>
                </g>
            </g>
        </g>
    </g>
</svg>