<?xml version="1.0" encoding="UTF-8"?>
<svg width="16px" height="18px" viewBox="0 0 16 18" version="1.1" xmlns="http://www.w3.org/2000/svg" xmlns:xlink="http://www.w3.org/1999/xlink">
    <!-- Generator: Sketch 49.3 (51167) - http://www.bohemiancoding.com/sketch -->
    <title>质量管理icon</title>
    <desc>Created with Sketch.</desc>
    <defs></defs>
    <g id="Page-1" stroke="none" stroke-width="1" fill="none" fill-rule="evenodd">
        <g id="系统首页" transform="translate(-20.000000, -500.000000)" fill="#D3D8DF">
            <g id="侧边导航" transform="translate(0.000000, 61.000000)">
                <g id="质量管理" transform="translate(0.000000, 426.000000)">
                    <g id="icon" transform="translate(20.000000, 13.000000)">
                        <g id="质量管理icon">
                            <g id="质量管理">
                                <polygon id="Shape" fill-rule="nonzero" points="6.19154221 11.2175061 7.08821534 12.1147029 11.7899078 7.4129281 10.8925045 6.51645541"></polygon>
                                <polygon id="Shape" fill-rule="nonzero" points="5.30217096 9.4079057 4.39162421 10.2783097 6.68515055 12.4716989 7.5956973 11.6012949"></polygon>
                                <path d="M15.9768165,4.8227158 C15.9330051,3.19849266 15.6781688,1.92981725 15.6080706,1.87912815 C15.5533064,1.83857689 14.4959915,2.09998774 13.3839123,2.09998774 C12.744266,2.09998774 12.0075044,1.87333511 11.6095509,1.75675021 C10.716831,1.49313652 9.85816644,1.12715006 9.05096569,0.666210742 C8.47922703,0.340352329 8.04476407,0.0173904454 7.97174508,0.017390427 C7.89872608,0.017390427 7.46353294,0.341076447 6.89325466,0.666210742 C6.08668593,1.12738446 5.22847636,1.49338591 4.33612978,1.75675021 C3.93890649,1.87405924 3.26056013,2.11881512 2.6209138,2.11881512 C1.50737428,2.11881512 0.39529511,1.83930101 0.340530892,1.87912815 C0.271162846,1.92981723 0.0615983685,3.19776853 0.0177869757,4.8227158 C-0.0231036477,6.32383689 -0.00703948088,7.54399561 0.270432667,9.54911102 C0.399676273,10.4839626 0.923222396,12.8706944 1.75271807,13.8142356 C2.40258705,14.552848 3.26421108,15.289288 4.31422409,16.0047282 C6.09077601,17.214025 7.94764882,17.9924645 7.99073001,17.9924645 C8.0345414,17.9924645 9.85417452,17.2147491 11.6321868,16.0047282 C12.6836602,15.2900121 13.5452842,14.552848 14.1951532,13.8142356 C15.0246489,12.8706944 15.5496554,10.4093772 15.678899,9.47452565 C15.8322389,8.36877944 16.0505656,7.54254734 15.9768165,4.8227158 Z M14.7413352,9.32897556 C14.6434898,10.0328297 14.2061061,12.3978377 13.4868691,13.2161043 C12.8800813,13.9069242 12.0608083,14.6042612 11.0531463,15.2900121 C10.0764957,15.9493576 9.05135466,16.5351319 7.98634887,17.0424062 C6.90990245,16.5400156 5.87516748,15.9540608 4.89180425,15.2900121 C3.88414226,14.6042612 3.06632962,13.9069242 2.45954184,13.2161043 C1.70160476,12.3543899 1.29853998,10.0755534 1.20653605,9.40573333 C0.91372991,7.28910191 0.916650679,6.04721931 0.953890373,4.67354506 C0.972875309,3.99503543 1.02690937,3.40921443 1.06049808,2.95373679 C1.44968927,3.01383956 1.90313717,3.05873561 2.39163419,3.05873561 C3.15979391,3.05873561 3.88706301,2.83280711 4.36898833,2.68363636 L4.55226597,2.62787838 C5.57453178,2.32591624 6.56466922,1.90374858 7.4949311,1.37296142 C7.67601819,1.27013499 7.83446938,1.17310159 7.9702847,1.08475775 C8.1075604,1.17237745 8.26601159,1.27013499 8.44636848,1.37296142 C9.37568388,1.90292432 10.3639238,2.32405158 11.3912242,2.62787838 L11.4437978,2.6430851 C11.9111194,2.78211802 12.782966,3.03990823 13.6131919,3.03990823 C14.0907361,3.03990823 14.5273896,2.99935697 14.901977,2.9443231 C14.9414073,3.40052488 15.020998,3.99069066 15.0399829,4.6742692 C15.1166528,7.45999654 14.890294,8.24929803 14.7406051,9.32897556 L14.7413352,9.32897556 Z" id="Shape" fill-rule="nonzero"></path>
                            </g>
                        </g>
                    </g>
                </g>
            </g>
        </g>
    </g>
</svg>