<?xml version="1.0" encoding="UTF-8"?>
<svg width="16px" height="15px" viewBox="0 0 16 15" version="1.1" xmlns="http://www.w3.org/2000/svg" xmlns:xlink="http://www.w3.org/1999/xlink">
    <!-- Generator: Sketch 49.3 (51167) - http://www.bohemiancoding.com/sketch -->
    <title>报表icon</title>
    <desc>Created with Sketch.</desc>
    <defs></defs>
    <g id="Page-1" stroke="none" stroke-width="1" fill="none" fill-rule="evenodd">
        <g id="系统首页" transform="translate(-19.000000, -414.000000)" fill="#D3D8DF">
            <g id="侧边导航" transform="translate(0.000000, 61.000000)">
                <g id="报表及分析" transform="translate(0.000000, 338.000000)">
                    <g id="icon" transform="translate(19.000000, 15.000000)">
                        <g id="报表icon">
                            <g id="报表-(1)">
                                <path d="M15.2115978,13.8743087 C15.2115215,14.0811454 15.0369176,14.2488014 14.8215092,14.2488747 L1.19234595,14.2488747 C0.976937577,14.2488014 0.80233367,14.0811454 0.802257297,13.8743087 L0.802257297,1.12524291 C0.80233367,0.918406151 0.976937577,0.75075015 1.19234595,0.750676817 L14.8215092,0.750676817 C15.0369176,0.75075015 15.2115215,0.918406151 15.2115978,1.12524291 L15.2115978,13.8743087 Z M14.8215092,0.00167750865 L1.19234595,0.00167750865 C0.547225946,0.00167750865 0.0222183784,0.505793772 0.0222183784,1.12524291 L0.0222183784,13.8741758 C0.0222183784,14.4936249 0.547225946,14.9977412 1.19234595,14.9977412 L14.8215092,14.9977412 C15.4666292,14.9977412 15.9916368,14.4936249 15.9916368,13.8741758 L15.9916368,1.12524291 C15.9916368,0.505793772 15.4666292,0.00167750865 14.8215092,0.00167750865 Z" id="Shape" fill-rule="nonzero"></path>
                                <path d="M3.51848649,3.04524291 L12.3711049,3.04524291 C12.4745966,3.04534883 12.5738813,3.00591975 12.647061,2.935652 C12.7202407,2.86538426 12.7613038,2.77005035 12.7611935,2.67067682 C12.7613038,2.57130328 12.7202407,2.47596937 12.647061,2.40570163 C12.5738813,2.33543389 12.4745966,2.2960048 12.3711049,2.29611073 L3.51848649,2.29611073 C3.30709247,2.30151782 3.13865075,2.46762266 3.13865075,2.67067682 C3.13865075,2.87373097 3.30709247,3.03983581 3.51848649,3.04524291 M3.51848649,7.45327059 L6.91027892,7.45327059 C7.01377064,7.45337651 7.11305532,7.41394743 7.18623506,7.34367968 C7.2594148,7.27341194 7.30047788,7.17807804 7.30036757,7.0787045 C7.30047788,6.97933096 7.2594148,6.88399705 7.18623506,6.81372931 C7.11305532,6.74346157 7.01377064,6.70403249 6.91027892,6.70413841 L3.51848649,6.70413841 C3.30709247,6.7095455 3.13865075,6.87565035 3.13865075,7.0787045 C3.13865075,7.28175865 3.30709247,7.4478635 3.51848649,7.45327059 M3.51848649,5.28068097 L9.25067243,5.28068097 C9.46681946,5.28068097 9.64076108,5.11286367 9.64076108,4.90611488 C9.64076108,4.69936609 9.46681946,4.53154879 9.25067243,4.53154879 L3.51848649,4.53154879 C3.30709247,4.53695588 3.13865075,4.70306073 3.13865075,4.90611488 C3.13865075,5.10916903 3.30709247,5.27527388 3.51848649,5.28068097 M13.1649816,11.0891792 C12.9200519,11.0891792 12.7203719,10.8981093 12.7203719,10.662926 C12.7203719,10.4277426 12.9200519,10.2360083 13.1649816,10.2360083 C13.4099114,10.2360083 13.6088995,10.4277426 13.6088995,10.662926 C13.6088995,10.8981093 13.4099114,11.0891792 13.1649816,11.0891792 M13.1649816,9.48687612 C12.611053,9.48687612 12.1469319,9.84416886 11.9963762,10.3295502 L10.0897989,10.3295502 L8.62326486,8.63662837 C8.54051459,8.54149204 8.41735784,8.49352526 8.28700541,8.50256055 C8.15885257,8.51438029 8.04500964,8.58611219 7.98271135,8.69429481 L6.65884541,10.9811543 L5.4012627,9.53776609 C5.31264938,9.43614738 5.17480813,9.38691148 5.03857297,9.40821592 C4.9023402,9.43038411 4.788287,9.51971182 4.73829189,9.64339931 L3.81461622,11.9541758 L2.01500541,11.9541758 C1.91151368,11.9540699 1.812229,11.9934989 1.73904927,12.0637667 C1.66586953,12.1340344 1.62480644,12.2293683 1.62491676,12.3287419 C1.62453405,12.5350869 1.79831071,12.7027217 2.01320649,12.703308 L4.08307027,12.703308 C4.24448063,12.7035144 4.3893404,12.6082132 4.44742054,12.4636069 L5.22912,10.5070671 L6.42498595,11.8793689 C6.50736039,11.974216 6.63322347,12.0238509 6.76124541,12.0119751 C6.88930102,12.0004096 7.00316451,11.9289133 7.06553946,11.8209052 L8.38774486,9.53550727 L9.60699676,10.9436844 C9.6811341,11.0290197 9.79085131,11.0784107 9.90658595,11.0785495 L12.0237751,11.0785495 C12.1992389,11.5212789 12.6431568,11.8380457 13.16512,11.8380457 C13.839853,11.8380457 14.3890768,11.3106768 14.3890768,10.6627931 C14.3889384,10.014245 13.8397146,9.48687612 13.1649816,9.48687612" id="Shape" fill-rule="nonzero"></path>
                            </g>
                        </g>
                    </g>
                </g>
            </g>
        </g>
    </g>
</svg>