<?xml version="1.0" encoding="UTF-8"?>
<svg width="16px" height="16px" viewBox="0 0 16 16" version="1.1" xmlns="http://www.w3.org/2000/svg" xmlns:xlink="http://www.w3.org/1999/xlink">
    <!-- Generator: Sketch 49.3 (51167) - http://www.bohemiancoding.com/sketch -->
    <title>分析icon</title>
    <desc>Created with Sketch.</desc>
    <defs></defs>
    <g id="Page-1" stroke="none" stroke-width="1" fill="none" fill-rule="evenodd">
        <g id="系统首页" transform="translate(-20.000000, -721.000000)" fill="#D3D8DF">
            <g id="侧边导航" transform="translate(0.000000, 61.000000)">
                <g id="分析平台" transform="translate(0.000000, 646.000000)">
                    <g id="分析icon" transform="translate(20.000000, 14.000000)">
                        <g id="分析">
                            <path d="M15.3659906,14.5547582 L1.22558502,14.5547582 L1.22558502,0.738845554 C1.22558502,0.341965679 0.951014041,0.0199687988 0.614040562,0.0199687988 C0.274570983,0.0199687988 0.00249609984,0.341965679 0.00249609984,0.738845554 L0.00249609984,15.276131 C0.00249609984,15.6730109 0.277067083,15.9950078 0.614040562,15.9950078 L15.3659906,15.9950078 C15.7054602,15.9950078 15.9775351,15.6730109 15.9775351,15.276131 C15.9800312,14.8767551 15.7054602,14.5547582 15.3659906,14.5547582 Z" id="Shape" fill-rule="nonzero"></path>
                            <path d="M2.33884555,11.8664587 C2.43369735,11.8664587 2.52854914,11.824025 2.60093604,11.7416537 L7.52574103,6.04056162 L9.38783151,8.22215289 C9.5276131,8.38689548 9.77472699,8.38689548 9.91450858,8.22215289 L13.1719189,4.39313573 L13.3441498,4.59531981 L14.3375975,5.75351014 L15.0514821,1.649922 L11.4795632,2.41372855 L12.500468,3.60686427 L12.6452418,3.77659906 L9.649922,7.29609984 L7.79032761,5.11700468 C7.64555382,4.94726989 7.41092044,4.94726989 7.26614665,5.11450858 L2.07675507,11.1201248 C1.93198128,11.2898596 1.92948518,11.5644306 2.07425897,11.7366615 C2.14664587,11.8215289 2.24399376,11.8664587 2.33884555,11.8664587 Z" id="Shape" fill-rule="nonzero"></path>
                        </g>
                    </g>
                </g>
            </g>
        </g>
    </g>
</svg>