<?xml version="1.0" encoding="UTF-8"?>
<svg width="16px" height="18px" viewBox="0 0 16 18" version="1.1" xmlns="http://www.w3.org/2000/svg" xmlns:xlink="http://www.w3.org/1999/xlink">
    <!-- Generator: Sketch 49.3 (51167) - http://www.bohemiancoding.com/sketch -->
    <title>用户权限icon</title>
    <desc>Created with Sketch.</desc>
    <defs></defs>
    <g id="Page-1" stroke="none" stroke-width="1" fill="none" fill-rule="evenodd">
        <g id="系统首页" transform="translate(-20.000000, -852.000000)" fill="#D3D8DF">
            <g id="侧边导航" transform="translate(0.000000, 61.000000)">
                <g id="用户及权限管理" transform="translate(0.000000, 778.000000)">
                    <g id="用户权限icon" transform="translate(20.000000, 13.000000)">
                        <g id="用户权限-通用">
                            <path d="M10.6747652,8.75445758 C11.9841758,7.92953813 12.8025574,6.44468314 12.8025574,4.79484426 C12.8025574,2.15510206 10.6747652,0.0103114962 8.05594406,0.0103114962 C5.43712289,0.0103114962 3.30933066,2.15510204 3.30933066,4.79484426 C3.30933066,6.44468314 4.12771229,7.92953815 5.43712289,8.75445758 C1.83624376,10.4042965 -0.291548442,13.8689581 0.0358041958,17.4986037 C0.0358041958,17.6635876 0.199480526,17.8285714 0.526833164,17.8285714 C0.690509494,17.8285714 0.854185801,17.8285714 0.854185824,17.6635875 C1.01786215,17.4986036 1.01786215,17.4986036 1.01786213,17.3336198 C0.690509494,13.8689581 2.98197803,10.5692804 6.58285715,9.24940924 C7.07388612,9.41439314 7.56491509,9.57937701 8.05594406,9.57937701 C8.54697302,9.57937701 9.03800199,9.41439311 9.52903096,9.24940924 C13.1299101,10.5692804 15.4213786,13.8689581 14.9303497,17.3336198 C14.9303497,17.4986037 14.9303497,17.4986037 15.094026,17.6635875 C15.2577023,17.8285714 15.2577023,17.8285714 15.4213786,17.8285714 C15.7487313,17.8285714 15.9124076,17.6635875 15.9124076,17.4986037 C16.4034366,13.7039742 14.2756444,10.4042965 10.6747652,8.75445758 Z M9.52903096,8.25950592 L9.03800199,8.25950592 C8.87432566,8.25950592 8.87432566,8.42448981 8.87432568,8.42448979 C8.71064935,8.58947368 8.38329672,8.58947368 8.05594406,8.58947368 C7.7285914,8.58947368 7.40123876,8.58947368 7.07388612,8.42448979 C7.07388612,8.25950589 6.74653348,8.25950589 6.58285715,8.25950592 C5.10977025,7.76455426 4.29138862,6.27969925 4.29138862,4.79484426 C4.29138862,2.65005372 6.09182818,1.00021484 8.05594406,1.00021482 C10.1837363,1.00021482 11.8204995,2.6500537 11.8204995,4.79484426 C11.8204995,6.27969925 11.0021179,7.76455426 9.52903096,8.25950592 Z" id="Shape" fill-rule="nonzero"></path>
                            <path d="M8.71064935,10.7342642 L7.40123876,10.7342642 C6.91020979,10.7342642 6.74653346,11.064232 6.58285715,11.3941998 L6.09182816,15.3538131 C6.09182816,15.518797 6.09182816,15.8487648 6.25550449,16.0137487 L7.56491509,17.8285714 C7.72859142,17.9935553 7.89226773,17.9935553 8.05594406,17.9935553 C8.21962039,17.9935553 8.54697302,17.8285714 8.54697302,17.6635875 L9.69270729,15.8487648 C9.85638362,15.6837809 9.85638362,15.518797 9.85638362,15.3538131 L9.36535465,11.3941998 C9.36535465,11.064232 9.03800201,10.7342642 8.71064935,10.7342642 Z M9.36535465,15.518797 L8.21962039,17.3336198 L8.05594406,17.3336198 L7.89226773,17.3336198 L6.58285715,15.518797 L6.58285715,15.3538131 L7.07388612,11.3941998 C7.07388612,11.3941998 7.07388612,11.2292159 7.23756243,11.2292159 L8.54697302,11.2292159 C8.54697302,11.2292159 8.71064935,11.2292159 8.71064935,11.3941998 L9.36535465,15.518797 Z" id="Shape" fill-rule="nonzero"></path>
                        </g>
                    </g>
                </g>
            </g>
        </g>
    </g>
</svg>